<svg
  xmlns="http://www.w3.org/2000/svg"
  version="1.1"
  xmlns:xlink="http://www.w3.org/1999/xlink"
  width="512"
  height="512"
  x="0"
  y="0"
  viewBox="0 0 512 512"
  style="enable-background: new 0 0 512 512"
  xml:space="preserve"
  class=""
>
  <g>
    <path
      fill="#463c4b"
      d="M464 448H48c-17.673 0-32-14.327-32-32V112h480v304c0 17.673-14.327 32-32 32z"
      opacity="1"
      data-original="#463c4b"
      class=""
    ></path>
    <path
      fill="#555a6e"
      d="M432 448H48c-17.673 0-32-14.327-32-32V112h448v304c0 17.673-14.327 32-32 32z"
      opacity="1"
      data-original="#555a6e"
      class=""
    ></path>
    <path
      fill="#463c4b"
      d="M272 448H48c-17.673 0-32-14.327-32-32V112h256z"
      opacity="1"
      data-original="#463c4b"
      class=""
    ></path>
    <path
      fill="#804b8f"
      d="M464 64H48c-17.673 0-32 14.327-32 32v16h480V96c0-17.673-14.327-32-32-32z"
      opacity="1"
      data-original="#804b8f"
    ></path>
    <path
      fill="#9b5faa"
      d="M432 64H48c-17.673 0-32 14.327-32 32v16h448V96c0-17.673-14.327-32-32-32z"
      opacity="1"
      data-original="#9b5faa"
    ></path>
    <circle
      cx="56"
      cy="88"
      r="8"
      fill="#91c83c"
      opacity="1"
      data-original="#91c83c"
    ></circle>
    <circle
      cx="88"
      cy="88"
      r="8"
      fill="#91c83c"
      opacity="1"
      data-original="#91c83c"
    ></circle>
    <circle
      cx="120"
      cy="88"
      r="8"
      fill="#91c83c"
      opacity="1"
      data-original="#91c83c"
    ></circle>
    <path
      fill="#5faa46"
      d="M229.579 208a10.417 10.417 0 0 1-9.733-6.718 63.53 63.53 0 0 0-1.45-3.489c-1.785-3.959-.958-8.604 2.113-11.675l.004-.004c4.07-4.07 4.07-10.668 0-14.738l-7.889-7.889a10.388 10.388 0 0 0-7.369-3.052H177.92a10.386 10.386 0 0 1-1.919-6.013c0-5.756-4.666-10.422-10.421-10.422h-43.157c-5.755 0-10.421 4.666-10.421 10.422 0 2.207-.7 4.293-1.919 6.013H82.745a10.388 10.388 0 0 0-7.369 3.052l-7.889 7.889c-4.07 4.07-4.07 10.668 0 14.738l.004.004c3.071 3.071 3.898 7.716 2.113 11.675-.517 1.145-1 2.309-1.45 3.489A10.418 10.418 0 0 1 58.421 208C52.666 208 48 212.666 48 218.422v11.157C48 235.334 52.666 240 58.421 240a10.42 10.42 0 0 1 9.733 6.718 63.53 63.53 0 0 0 1.45 3.489c1.785 3.959.958 8.604-2.113 11.675l-.004.004c-4.07 4.07-4.07 10.668 0 14.738l7.889 7.889a10.388 10.388 0 0 0 7.369 3.052h27.335a10.386 10.386 0 0 1 1.919 6.013c0 5.756 4.666 10.422 10.421 10.422h43.157c5.755 0 10.421-4.666 10.421-10.422 0-2.207.7-4.293 1.919-6.013h27.335c2.667 0 5.334-1.017 7.369-3.052l7.889-7.889c4.07-4.07 4.07-10.668 0-14.738l-.004-.004c-3.071-3.071-3.898-7.716-2.113-11.675.517-1.145 1-2.309 1.45-3.489a10.418 10.418 0 0 1 9.733-6.718c5.755 0 10.421-4.666 10.421-10.422v-11.157C240 212.666 235.334 208 229.579 208zm-93.502 17.948c-.62-7.867 2.556-15.014 7.891-19.807 4.468 4.002 7.46 9.627 7.955 15.911.62 7.867-2.556 15.014-7.891 19.807-4.468-4.002-7.459-9.627-7.955-15.911z"
      opacity="1"
      data-original="#5faa46"
    ></path>
    <path
      fill="#91c83c"
      d="M208 229.578v-11.157c0-5.756-4.666-10.422-10.422-10.422a10.417 10.417 0 0 1-9.733-6.718 63.53 63.53 0 0 0-1.45-3.489c-1.785-3.959-.958-8.604 2.113-11.675l.004-.004c4.07-4.07 4.07-10.668 0-14.738l-7.889-7.889c-4.07-4.07-10.668-4.07-14.738 0l-.004.004c-3.071 3.071-7.715 3.898-11.674 2.113-1.145-.516-2.309-1-3.489-1.45A10.417 10.417 0 0 1 144 154.42c0-5.756-4.666-10.422-10.422-10.422h-11.157c-5.756 0-10.422 4.666-10.422 10.422 0 4.326-2.676 8.193-6.718 9.733a63.53 63.53 0 0 0-3.489 1.45c-3.959 1.785-8.604.958-11.674-2.113l-.004-.004c-4.07-4.07-10.668-4.07-14.738 0l-7.889 7.889c-4.07 4.07-4.07 10.668 0 14.738l.004.004c3.071 3.071 3.898 7.716 2.113 11.675-.516 1.145-1 2.309-1.45 3.489a10.417 10.417 0 0 1-9.733 6.718C52.666 208 48 212.666 48 218.422v11.157C48 235.334 52.666 240 58.422 240c4.326 0 8.193 2.676 9.733 6.718a63.53 63.53 0 0 0 1.45 3.489c1.785 3.959.958 8.604-2.113 11.675l-.004.004c-4.07 4.07-4.07 10.668 0 14.738l7.889 7.889c4.07 4.07 10.668 4.07 14.738 0l.004-.004c3.071-3.071 7.715-3.898 11.674-2.113 1.145.516 2.309 1 3.489 1.45a10.417 10.417 0 0 1 6.718 9.733c0 5.756 4.666 10.422 10.422 10.422h11.157c5.756 0 10.422-4.666 10.422-10.422 0-4.326 2.676-8.193 6.718-9.733a63.53 63.53 0 0 0 3.489-1.45c3.959-1.785 8.604-.957 11.674 2.113l.004.004c4.07 4.07 10.668 4.07 14.738 0l7.889-7.889c4.07-4.07 4.07-10.668 0-14.738l-.004-.004c-3.071-3.071-3.898-7.716-2.113-11.675.516-1.145 1-2.309 1.45-3.489a10.417 10.417 0 0 1 9.733-6.718c5.755 0 10.421-4.666 10.421-10.422zm-56.077-7.526c1.166 14.788-11.082 27.037-25.87 25.871-11.633-.917-21.058-10.342-21.976-21.975-1.166-14.788 11.082-27.037 25.87-25.871 11.634.917 21.059 10.342 21.976 21.975z"
      opacity="1"
      data-original="#91c83c"
    ></path>
    <path
      fill="#a5c3dc"
      d="M104 408a7.976 7.976 0 0 1-5.657-2.343l-32-32a7.998 7.998 0 0 1 0-11.313l32-32a8 8 0 0 1 11.313 0 7.998 7.998 0 0 1 0 11.313L83.314 368l26.343 26.343a7.998 7.998 0 0 1 0 11.313A7.973 7.973 0 0 1 104 408zM184 408a7.976 7.976 0 0 1-5.657-2.343 7.998 7.998 0 0 1 0-11.313L204.686 368l-26.343-26.343a7.998 7.998 0 0 1 0-11.313 8 8 0 0 1 11.313 0l32 32a7.998 7.998 0 0 1 0 11.313l-32 32A7.972 7.972 0 0 1 184 408zM127.994 408.002a7.955 7.955 0 0 1-3.571-.847 8 8 0 0 1-3.578-10.733l32-64a8 8 0 1 1 14.311 7.155l-32 64a8.001 8.001 0 0 1-7.162 4.425z"
      opacity="1"
      data-original="#a5c3dc"
    ></path>
    <path
      fill="#91c83c"
      d="M344 192h-48a8 8 0 0 1 0-16h48a8 8 0 0 1 0 16z"
      opacity="1"
      data-original="#91c83c"
    ></path>
    <path
      fill="#463c4b"
      d="M360 352h-64a8 8 0 0 1 0-16h64a8 8 0 0 1 0 16zM408 384H296a8 8 0 0 1 0-16h112a8 8 0 0 1 0 16zM440 352h-48a8 8 0 0 1 0-16h48a8 8 0 0 1 0 16z"
      opacity="1"
      data-original="#463c4b"
      class=""
    ></path>
    <path
      fill="#91c83c"
      d="M360 224h-48a8 8 0 0 1 0-16h48a8 8 0 0 1 0 16z"
      opacity="1"
      data-original="#91c83c"
    ></path>
    <path
      fill="#d7e6f0"
      d="M440 224h-48a8 8 0 0 1 0-16h48a8 8 0 0 1 0 16z"
      opacity="1"
      data-original="#d7e6f0"
    ></path>
    <path
      fill="#91c83c"
      d="M360 256h-48a8 8 0 0 1 0-16h48a8 8 0 0 1 0 16z"
      opacity="1"
      data-original="#91c83c"
    ></path>
    <path
      fill="#d7e6f0"
      d="M440 256h-48a8 8 0 0 1 0-16h48a8 8 0 0 1 0 16z"
      opacity="1"
      data-original="#d7e6f0"
    ></path>
    <path
      fill="#91c83c"
      d="M360 288h-48a8 8 0 0 1 0-16h48a8 8 0 0 1 0 16z"
      opacity="1"
      data-original="#91c83c"
    ></path>
    <path
      fill="#d7e6f0"
      d="M440 288h-48a8 8 0 0 1 0-16h48a8 8 0 0 1 0 16z"
      opacity="1"
      data-original="#d7e6f0"
    ></path>
  </g>
</svg>
