<svg
  xmlns="http://www.w3.org/2000/svg"
  version="1.1"
  xmlns:xlink="http://www.w3.org/1999/xlink"
  width="512"
  height="512"
  x="0"
  y="0"
  viewBox="0 0 68 68"
  style="enable-background: new 0 0 512 512"
  xml:space="preserve"
  class=""
>
  <g>
    <path
      fill="#4f5d99"
      d="M52.662 44.21V58c0 4.415-11.275 7.996-25.171 7.996-13.905 0-25.18-3.58-25.18-7.997V44.21c0-4.424 11.275-8.005 25.18-8.005 13.896 0 25.17 3.58 25.17 8.005z"
      opacity="1"
      data-original="#4f5d99"
      class=""
    ></path>
    <path
      fill="#3d4a75"
      d="M52.662 44.21c0 4.415-11.275 7.996-25.171 7.996-13.905 0-25.18-3.58-25.18-7.997 0-4.424 11.275-8.005 25.18-8.005 13.896 0 25.17 3.58 25.17 8.005z"
      opacity="1"
      data-original="#3d4a75"
    ></path>
    <path
      fill="#4f5d99"
      d="M2.31 44.21c0 4.415 11.276 7.996 25.18 7.996 13.897 0 25.172-3.58 25.172-7.997V58c0 4.416-11.275 7.997-25.171 7.997-13.905 0-25.18-3.58-25.18-7.997z"
      opacity="1"
      data-original="#4f5d99"
      class=""
    ></path>
    <path
      fill="#e9e9ff"
      d="M18.272 58.86c0 .634-.557 1.122-1.19 1.053-5.5-.625-9.14-1.907-10.566-2.868a.903.903 0 0 1-.39-.755.922.922 0 0 1 1.221-.878c2.968 1.045 6.424 2.006 9.963 2.388.542.06.962.511.962 1.06z"
      opacity="1"
      data-original="#e9e9ff"
      class=""
    ></path>
    <path
      fill="#7bd681"
      d="M49.552 55.6c0 .95-.773 1.715-1.723 1.715-.951 0-1.724-.764-1.724-1.715 0-.95.773-1.724 1.724-1.724.95 0 1.723.773 1.723 1.724z"
      opacity="1"
      data-original="#7bd681"
    ></path>
    <path
      fill="#ed524e"
      d="M37.557 58.205c0 .95-.773 1.715-1.723 1.715-.951 0-1.724-.764-1.724-1.715 0-.95.773-1.724 1.724-1.724.95 0 1.723.773 1.723 1.724z"
      opacity="1"
      data-original="#ed524e"
      class=""
    ></path>
    <path
      fill="#4f5d99"
      d="M52.662 27.107v13.79c0 4.415-11.275 7.996-25.171 7.996-13.905 0-25.18-3.58-25.18-7.997v-13.79c0-4.424 11.275-8.005 25.18-8.005 13.896 0 25.17 3.581 25.17 8.006z"
      opacity="1"
      data-original="#4f5d99"
      class=""
    ></path>
    <path
      fill="#3d4a75"
      d="M52.662 27.107c0 4.415-11.275 7.996-25.171 7.996-13.905 0-25.18-3.58-25.18-7.996 0-4.425 11.275-8.006 25.18-8.006 13.896 0 25.17 3.581 25.17 8.006z"
      opacity="1"
      data-original="#3d4a75"
    ></path>
    <path
      fill="#4f5d99"
      d="M2.31 27.107c0 4.415 11.276 7.996 25.18 7.996 13.897 0 25.172-3.58 25.172-7.996v13.79c0 4.416-11.275 7.997-25.171 7.997-13.905 0-25.18-3.58-25.18-7.996z"
      opacity="1"
      data-original="#4f5d99"
      class=""
    ></path>
    <path
      fill="#e9e9ff"
      d="M18.272 41.758c0 .633-.557 1.121-1.19 1.053-5.5-.626-9.14-1.908-10.566-2.87a.903.903 0 0 1-.39-.754.922.922 0 0 1 1.221-.878c2.968 1.046 6.424 2.007 9.963 2.388.542.061.962.511.962 1.06z"
      opacity="1"
      data-original="#e9e9ff"
      class=""
    ></path>
    <path
      fill="#7bd681"
      d="M49.552 38.497c0 .951-.773 1.715-1.723 1.715-.951 0-1.724-.764-1.724-1.715 0-.95.773-1.723 1.724-1.723.95 0 1.723.773 1.723 1.723z"
      opacity="1"
      data-original="#7bd681"
    ></path>
    <path
      fill="#fdc72e"
      d="M43.647 40.216c0 .951-.773 1.715-1.723 1.715-.951 0-1.724-.764-1.724-1.715 0-.95.773-1.723 1.724-1.723.95 0 1.723.773 1.723 1.723z"
      opacity="1"
      data-original="#fdc72e"
    ></path>
    <path
      fill="#ed524e"
      d="M37.557 41.102c0 .951-.773 1.715-1.723 1.715-.951 0-1.724-.764-1.724-1.715 0-.95.773-1.724 1.724-1.724.95 0 1.723.773 1.723 1.724z"
      opacity="1"
      data-original="#ed524e"
      class=""
    ></path>
    <path
      fill="#4f5d99"
      d="M52.662 10.004v13.79c0 4.416-11.275 7.996-25.171 7.996-13.905 0-25.18-3.58-25.18-7.996v-13.79c0-4.425 11.275-8.005 25.18-8.005 13.896 0 25.17 3.58 25.17 8.005z"
      opacity="1"
      data-original="#4f5d99"
      class=""
    ></path>
    <path
      fill="#3d4a75"
      d="M52.662 10.004C52.662 14.42 41.387 18 27.49 18c-13.905 0-25.18-3.58-25.18-7.996 0-4.425 11.275-8.005 25.18-8.005 13.896 0 25.17 3.58 25.17 8.005z"
      opacity="1"
      data-original="#3d4a75"
    ></path>
    <path
      fill="#4f5d99"
      d="M2.31 10.004C2.31 14.42 13.587 18 27.49 18c13.897 0 25.172-3.58 25.172-7.996v13.79c0 4.417-11.275 7.997-25.171 7.997-13.905 0-25.18-3.58-25.18-7.996z"
      opacity="1"
      data-original="#4f5d99"
      class=""
    ></path>
    <path
      fill="#e9e9ff"
      d="M18.272 24.655c0 .633-.557 1.121-1.19 1.053-5.5-.626-9.14-1.907-10.566-2.869a.903.903 0 0 1-.39-.755.922.922 0 0 1 1.221-.878c2.968 1.046 6.424 2.007 9.963 2.388.542.061.962.512.962 1.06z"
      opacity="1"
      data-original="#e9e9ff"
      class=""
    ></path>
    <path
      fill="#7bd681"
      d="M49.552 21.394c0 .951-.773 1.715-1.723 1.715-.951 0-1.724-.764-1.724-1.715 0-.95.773-1.723 1.724-1.723.95 0 1.723.773 1.723 1.723z"
      opacity="1"
      data-original="#7bd681"
    ></path>
    <path
      fill="#fdc72e"
      d="M43.647 23.114c0 .95-.773 1.715-1.723 1.715-.951 0-1.724-.764-1.724-1.715 0-.95.773-1.724 1.724-1.724.95 0 1.723.773 1.723 1.724z"
      opacity="1"
      data-original="#fdc72e"
    ></path>
    <path
      fill="#ed524e"
      d="M37.557 24c0 .95-.773 1.714-1.723 1.714-.951 0-1.724-.764-1.724-1.715 0-.95.773-1.723 1.724-1.723.95 0 1.723.773 1.723 1.723z"
      opacity="1"
      data-original="#ed524e"
      class=""
    ></path>
    <g fill="#fff" opacity=".16">
      <path
        d="M39.224 65.08c-3.504.591-7.486.921-11.73.921-1.957 0-3.857-.068-5.677-.205L6.867 5.417c3.845-1.752 9.83-2.98 16.747-3.322zM48.11 62.588c-1.308.592-2.856 1.126-4.597 1.581L28.12 2.004c1.73.011 3.413.08 5.04.204z"
        fill="#ffffff"
        opacity="1"
        data-original="#ffffff"
        class=""
      ></path>
    </g>
    <path
      fill="#70c1f9"
      d="m65.324 50.903-3.305-.873a9.36 9.36 0 0 0-.668-1.604l1.728-2.948a.487.487 0 0 0-.08-.588l-2.253-2.254a.487.487 0 0 0-.597-.08l-2.949 1.72a8.957 8.957 0 0 0-1.078-.482c-.178-.071-.347-.124-.525-.187l-.864-3.296a.495.495 0 0 0-.472-.365h-3.198a.487.487 0 0 0-.472.365l-.107.401-.143.553-.614 2.342c-.561.178-1.096.401-1.612.668l-2.94-1.719a.487.487 0 0 0-.597.08l-1.452 1.452-.801.802c-.161.16-.188.4-.08.588l1.718 2.948a9.13 9.13 0 0 0-.659 1.613L40 50.903a.487.487 0 0 0-.366.472v3.189a.48.48 0 0 0 .366.472l3.304.873c.17.552.392 1.096.668 1.603l-1.728 2.949a.486.486 0 0 0 .08.588l2.254 2.262c.16.152.401.187.597.071l2.94-1.719a9.137 9.137 0 0 0 1.612.668l.864 3.305c.053.214.25.365.472.365h3.198c.223 0 .41-.151.472-.365l.864-3.305a9.83 9.83 0 0 0 1.603-.668l.01.01.409.24 1.844 1.069.686.4c.053.036.116.054.178.072a.528.528 0 0 0 .419-.143l2.253-2.262a.486.486 0 0 0 .08-.588l-1.728-2.949a9.359 9.359 0 0 0 .668-1.603l3.305-.873a.48.48 0 0 0 .365-.472v-3.19a.487.487 0 0 0-.365-.471zm-12.667 8.284a6.218 6.218 0 0 1 0-12.435 6.218 6.218 0 0 1 0 12.435z"
      opacity="1"
      data-original="#70c1f9"
    ></path>
    <circle
      cx="52.657"
      cy="52.969"
      r="6.218"
      fill="#4f5d99"
      opacity="1"
      data-original="#4f5d99"
      class=""
    ></circle>
    <circle
      cx="52.657"
      cy="52.969"
      r="5.02"
      fill="#e9e9ff"
      opacity="1"
      data-original="#e9e9ff"
      class=""
    ></circle>
  </g>
</svg>
