<svg
  xmlns="http://www.w3.org/2000/svg"
  version="1.1"
  xmlns:xlink="http://www.w3.org/1999/xlink"
  width="512"
  height="512"
  x="0"
  y="0"
  viewBox="0 0 512 512"
  style="enable-background: new 0 0 512 512"
  xml:space="preserve"
  class=""
>
  <g>
    <g data-name="Hosting-server-cloud copy 2">
      <path
        fill="#ffd648"
        d="M360 280v32a16 16 0 0 1-16 16H168a16 16 0 0 1-16-16v-32a16 16 0 0 1 16-16h176a16 16 0 0 1 16 16z"
        opacity="1"
        data-original="#ffd648"
        class=""
      ></path>
      <rect
        width="208"
        height="64"
        x="152"
        y="200"
        fill="#ffd648"
        rx="16"
        opacity="1"
        data-original="#ffd648"
        class=""
      ></rect>
      <rect
        width="208"
        height="64"
        x="152"
        y="136"
        fill="#ffd648"
        rx="16"
        opacity="1"
        data-original="#ffd648"
        class=""
      ></rect>
      <path
        fill="#ffb300"
        d="M224 328h-56a16 16 0 0 1-16-16v-32a16 16 0 0 1 16-16h56a16 16 0 0 0-16 16v32a16 16 0 0 0 16 16zM224 264h-56a16 16 0 0 1-16-16v-32a16 16 0 0 1 16-16h56a16 16 0 0 0-16 16v32a16 16 0 0 0 16 16zM224 200h-56a16 16 0 0 1-16-16v-32a16 16 0 0 1 16-16h56a16 16 0 0 0-16 16v32a16 16 0 0 0 16 16z"
        opacity="1"
        data-original="#ffb300"
      ></path>
      <path
        fill="#00d0ce"
        d="M416 136a72 72 0 0 1 0 144h-56a16 16 0 0 0-16-16 16 16 0 0 0 16-16v-32a16 16 0 0 0-16-16 16 16 0 0 0 16-16v-32a16 16 0 0 0-16-16H168a16 16 0 0 0-16 16v32a16 16 0 0 0 16 16 16 16 0 0 0-16 16v32a16 16 0 0 0 16 16 16 16 0 0 0-16 16h-40a88 88 0 1 1 14.4-174.83 144.037 144.037 0 0 1 270.58 33.38A71.505 71.505 0 0 1 416 136z"
        opacity="1"
        data-original="#00d0ce"
        class=""
      ></path>
      <path
        fill="#00a5ab"
        d="M256 24a144.26 144.26 0 0 1 32.01 3.57 144.245 144.245 0 0 0-97.61 77.6 88.017 88.017 0 0 0-38.08 171.6A16.457 16.457 0 0 0 152 280h-40a88 88 0 1 1 14.4-174.83A143.993 143.993 0 0 1 256 24zM384 200a16 16 0 0 1 16 16v32a16 16 0 0 1-16 16 15.99 15.99 0 0 1 15.99 15.56 72.663 72.663 0 0 1-7.99.44h-32a16 16 0 0 0-16-16 16 16 0 0 0 16-16v-32a16 16 0 0 0-16-16 16 16 0 0 0 16-16v-32a16 16 0 0 0-16-16s37.91.55 42.57.2A16 16 0 0 1 400 152v32a16 16 0 0 1-16 16z"
        opacity="1"
        data-original="#00a5ab"
      ></path>
      <g fill="#007d93">
        <path
          d="M176 160h96v16h-96zM288 160h16v16h-16zM320 160h16v16h-16zM176 224h96v16h-96zM288 224h16v16h-16zM320 224h16v16h-16zM176 288h96v16h-96zM288 288h16v16h-16zM320 288h16v16h-16zM248 328h16v104h-16zM176 384H64v-16h104v-40h16v48a8 8 0 0 1-8 8z"
          fill="#007d93"
          opacity="1"
          data-original="#007d93"
        ></path>
        <path
          d="M144 448h-16v-40a8 8 0 0 1 8-8h64v-72h16v80a8 8 0 0 1-8 8h-64zM448 384H336a8 8 0 0 1-8-8v-48h16v40h104z"
          fill="#007d93"
          opacity="1"
          data-original="#007d93"
        ></path>
        <path
          d="M384 448h-16v-32h-64a8 8 0 0 1-8-8v-80h16v72h64a8 8 0 0 1 8 8z"
          fill="#007d93"
          opacity="1"
          data-original="#007d93"
        ></path>
      </g>
      <circle
        cx="464"
        cy="376"
        r="24"
        fill="#00d0ce"
        opacity="1"
        data-original="#00d0ce"
        class=""
      ></circle>
      <circle
        cx="376"
        cy="464"
        r="24"
        fill="#00d0ce"
        opacity="1"
        data-original="#00d0ce"
        class=""
      ></circle>
      <circle
        cx="256"
        cy="448"
        r="24"
        fill="#00d0ce"
        opacity="1"
        data-original="#00d0ce"
        class=""
      ></circle>
      <circle
        cx="136"
        cy="464"
        r="24"
        fill="#00d0ce"
        opacity="1"
        data-original="#00d0ce"
        class=""
      ></circle>
      <circle
        cx="48"
        cy="376"
        r="24"
        fill="#00d0ce"
        opacity="1"
        data-original="#00d0ce"
        class=""
      ></circle>
    </g>
  </g>
</svg>
