<svg
  xmlns="http://www.w3.org/2000/svg"
  version="1.1"
  xmlns:xlink="http://www.w3.org/1999/xlink"
  width="512"
  height="512"
  x="0"
  y="0"
  viewBox="0 0 512 512"
  style="enable-background: new 0 0 512 512"
  xml:space="preserve"
  class=""
>
  <g>
    <path
      fill="#ddeafb"
      d="M5.127 141.341 0 150.576V417.56c0 17.618 14.282 31.9 31.9 31.9h448.2c17.618 0 31.9-14.282 31.9-31.9V150.576l-5.127-9.235z"
      opacity="1"
      data-original="#ddeafb"
    ></path>
    <path
      fill="#cbe2ff"
      d="M459.765 141.341v223.983c0 17.618-14.282 31.9-31.9 31.9H0v20.335c0 17.618 14.282 31.9 31.9 31.9h448.2c17.618 0 31.9-14.282 31.9-31.9V150.576l-5.127-9.235z"
      opacity="1"
      data-original="#cbe2ff"
    ></path>
    <path
      fill="#698ed5"
      d="M480.1 62.54H31.9C14.282 62.54 0 76.822 0 94.44v56.136h512V94.44c0-17.618-14.282-31.9-31.9-31.9z"
      opacity="1"
      data-original="#698ed5"
      class=""
    ></path>
    <path
      fill="#4073c8"
      d="M480.1 62.54h-20.335v88.036H512V94.44c0-17.618-14.282-31.9-31.9-31.9z"
      opacity="1"
      data-original="#4073c8"
    ></path>
    <circle
      cx="57.783"
      cy="106.558"
      r="14.312"
      fill="#dd636e"
      opacity="1"
      data-original="#dd636e"
    ></circle>
    <circle
      cx="101.809"
      cy="106.558"
      r="14.312"
      fill="#ffe07d"
      opacity="1"
      data-original="#ffe07d"
    ></circle>
    <circle
      cx="145.835"
      cy="106.558"
      r="14.312"
      fill="#86f1a7"
      opacity="1"
      data-original="#86f1a7"
    ></circle>
    <path
      fill="#fb74c4"
      d="M223.812 390.153H47.136c-5.523 0-10-4.477-10-10V203.477c0-5.523 4.477-10 10-10h176.675c5.523 0 10 4.477 10 10v176.675c.001 5.524-4.476 10.001-9.999 10.001z"
      opacity="1"
      data-original="#fb74c4"
    ></path>
    <path
      fill="#bed8fb"
      d="M340.151 270.959H284.73c-5.523 0-10-4.477-10-10v-57.481c0-5.523 4.477-10 10-10h55.421c5.523 0 10 4.477 10 10v57.481c0 5.522-4.477 10-10 10z"
      opacity="1"
      data-original="#bed8fb"
    ></path>
    <path
      fill="#86f1a7"
      d="M427.399 390.549H284.731c-5.523 0-10-4.477-10-10v-57.481c0-5.523 4.477-10 10-10h142.668c5.523 0 10 4.477 10 10v57.481c0 5.523-4.478 10-10 10z"
      opacity="1"
      data-original="#86f1a7"
    ></path>
    <path
      fill="#698ed5"
      d="M423.491 221.567h-41.048a7.726 7.726 0 1 1 0-15.452h41.048a7.726 7.726 0 1 1 0 15.452zM439.618 254.593h-57.175a7.726 7.726 0 1 1 0-15.452h57.175a7.726 7.726 0 1 1 0 15.452zM404.948 286.983h-22.505a7.726 7.726 0 1 1 0-15.452h22.505a7.727 7.727 0 0 1 0 15.452z"
      opacity="1"
      data-original="#698ed5"
      class=""
    ></path>
    <path
      fill="#dd5ca2"
      d="m172.446 287.582-56.32-32.516c-4.021-2.322-9.048.58-9.048 5.224v65.033c0 4.643 5.026 7.545 9.048 5.224l56.32-32.516c4.021-2.324 4.021-8.128 0-10.449z"
      opacity="1"
      data-original="#dd5ca2"
    ></path>
  </g>
</svg>
