<?xml version="1.0" encoding="UTF-8"?>
<svg xmlns="http://www.w3.org/2000/svg" xmlns:xlink="http://www.w3.org/1999/xlink" width="64px" height="64px" viewBox="0 0 64 64" version="1.1">
<g id="surface1">
<path style=" stroke:none;fill-rule:nonzero;fill:rgb(9.411765%,9.019608%,9.019608%);fill-opacity:1;" d="M 58.667969 32 C 58.667969 17.273438 46.726562 5.332031 32 5.332031 C 17.273438 5.332031 5.332031 17.273438 5.332031 32 C 5.332031 46.726562 17.273438 58.667969 32 58.667969 C 46.726562 58.667969 58.667969 46.726562 58.667969 32 Z M 58.667969 32 "/>
<path style=" stroke:none;fill-rule:nonzero;fill:rgb(100%,100%,100%);fill-opacity:1;" d="M 9.085938 45.648438 C 12.332031 51.085938 17.457031 55.269531 23.570312 57.304688 C 24.902344 57.546875 25.390625 56.726562 25.390625 56.019531 C 25.390625 55.726562 25.386719 55.207031 25.378906 54.515625 C 25.371094 53.714844 25.359375 52.675781 25.355469 51.484375 C 17.9375 53.09375 16.371094 47.90625 16.371094 47.90625 C 15.160156 44.828125 13.410156 44.007812 13.410156 44.007812 C 10.988281 42.351562 13.59375 42.386719 13.59375 42.386719 C 16.269531 42.574219 17.679688 45.136719 17.679688 45.136719 C 20.054688 49.210938 23.921875 48.03125 25.4375 47.351562 C 25.679688 45.628906 26.367188 44.453125 27.132812 43.785156 C 21.210938 43.113281 14.984375 40.824219 14.984375 30.605469 C 14.984375 27.695312 16.023438 25.316406 17.730469 23.449219 C 17.457031 22.777344 16.539062 20.066406 17.992188 16.394531 C 17.992188 16.394531 20.230469 15.675781 25.324219 19.128906 C 27.449219 18.535156 29.734375 18.238281 32 18.230469 C 34.265625 18.238281 36.546875 18.535156 38.675781 19.128906 C 43.765625 15.675781 46.003906 16.394531 46.003906 16.394531 C 47.457031 20.066406 46.542969 22.777344 46.265625 23.449219 C 47.976562 25.316406 49.007812 27.695312 49.007812 30.605469 C 49.007812 40.851562 42.773438 43.105469 36.832031 43.765625 C 37.789062 44.589844 38.644531 46.214844 38.644531 48.703125 C 38.644531 51.085938 38.628906 53.164062 38.621094 54.539062 C 38.613281 55.21875 38.609375 55.726562 38.609375 56.019531 C 38.609375 56.730469 39.089844 57.5625 40.445312 57.300781 C 45.3125 55.675781 49.554688 52.6875 52.71875 48.785156 C 47.832031 54.8125 40.367188 58.667969 32 58.667969 C 22.257812 58.667969 13.738281 53.445312 9.085938 45.648438 Z M 9.085938 45.648438 "/>
</g>
</svg>
