<?xml version="1.0" encoding="UTF-8"?>
<svg xmlns="http://www.w3.org/2000/svg" xmlns:xlink="http://www.w3.org/1999/xlink" width="64px" height="64px" viewBox="0 0 64 64" version="1.1">
<g id="surface1">
<path style=" stroke:none;fill-rule:nonzero;fill:rgb(100%,76.078433%,29.019609%);fill-opacity:1;" d="M 11.601562 49.199219 L 11.941406 48.726562 L 27.980469 18.296875 L 28.015625 17.976562 L 20.945312 4.695312 C 20.679688 4.199219 20.125 3.925781 19.566406 4.019531 C 19.011719 4.113281 18.578125 4.550781 18.488281 5.109375 Z M 11.601562 49.199219 "/>
<path style=" stroke:none;fill-rule:nonzero;fill:rgb(100%,65.490198%,7.058824%);fill-opacity:1;" d="M 11.800781 48.839844 L 12.054688 48.339844 L 27.929688 18.226562 L 20.878906 4.894531 C 20.640625 4.417969 20.113281 4.15625 19.589844 4.253906 C 19.066406 4.347656 18.667969 4.777344 18.613281 5.308594 Z M 11.800781 48.839844 "/>
<path style=" stroke:none;fill-rule:nonzero;fill:rgb(95.686275%,74.117649%,38.431373%);fill-opacity:1;" d="M 33.167969 28.019531 L 38.433594 22.621094 L 33.164062 12.578125 C 32.929688 12.136719 32.46875 11.863281 31.972656 11.863281 C 31.472656 11.863281 31.011719 12.136719 30.777344 12.578125 L 27.960938 17.941406 L 27.960938 18.398438 Z M 33.167969 28.019531 "/>
<path style=" stroke:none;fill-rule:nonzero;fill:rgb(100%,64.705884%,5.490196%);fill-opacity:1;" d="M 33.074219 27.800781 L 38.199219 22.558594 L 33.074219 12.800781 C 32.902344 12.367188 32.496094 12.078125 32.03125 12.058594 C 31.566406 12.035156 31.132812 12.292969 30.925781 12.707031 L 28.097656 18.164062 L 28.015625 18.441406 Z M 33.074219 27.800781 "/>
<path style=" stroke:none;fill-rule:nonzero;fill:rgb(96.470588%,50.980395%,4.705882%);fill-opacity:1;" d="M 11.605469 49.203125 L 11.757812 49.046875 L 12.316406 48.820312 L 32.835938 28.375 L 33.097656 27.667969 L 27.976562 17.910156 Z M 11.605469 49.203125 "/>
<path style=" stroke:none;fill-rule:nonzero;fill:rgb(99.215686%,87.843138%,40.784314%);fill-opacity:1;" d="M 33.824219 59.511719 L 52.398438 49.152344 L 47.09375 16.492188 C 47.015625 16.023438 46.679688 15.636719 46.226562 15.488281 C 45.773438 15.34375 45.277344 15.464844 44.941406 15.800781 L 11.601562 49.199219 L 30.066406 59.511719 C 31.234375 60.160156 32.65625 60.160156 33.820312 59.511719 "/>
<path style=" stroke:none;fill-rule:nonzero;fill:rgb(98.823529%,79.215688%,24.705882%);fill-opacity:1;" d="M 52.230469 49.066406 L 46.964844 16.652344 C 46.945312 16.203125 46.660156 15.808594 46.234375 15.652344 C 45.8125 15.496094 45.335938 15.613281 45.03125 15.945312 L 11.800781 49.136719 L 30.0625 59.339844 C 31.21875 59.984375 32.628906 59.984375 33.789062 59.339844 Z M 52.230469 49.066406 "/>
<path style=" stroke:none;fill-rule:nonzero;fill:rgb(93.333334%,67.058825%,21.568628%);fill-opacity:1;" d="M 33.824219 59.199219 C 32.65625 59.851562 31.234375 59.851562 30.066406 59.199219 L 11.753906 49.042969 L 11.601562 49.199219 L 30.066406 59.511719 C 31.234375 60.160156 32.65625 60.160156 33.820312 59.511719 L 52.398438 49.152344 L 52.355469 48.875 Z M 33.824219 59.199219 "/>
<path style=" stroke:none;fill-rule:nonzero;fill:rgb(14.509805%,14.509805%,14.509805%);fill-opacity:1;" d="M 46.402344 26 L 30.808594 33.066406 L 30.808594 55.207031 L 43.25 49.570312 L 43.25 62 L 62 53.484375 L 62 33.066406 Z M 46.402344 26 "/>
<path style=" stroke:none;fill-rule:nonzero;fill:rgb(100%,100%,100%);fill-opacity:1;" d="M 46.402344 29.460938 L 33.96875 35.097656 L 33.96875 40.652344 L 46.402344 35.015625 L 58.84375 40.652344 L 58.84375 35.097656 Z M 46.402344 29.460938 "/>
<path style=" stroke:none;fill-rule:nonzero;fill:rgb(100%,100%,100%);fill-opacity:1;" d="M 46.402344 39.128906 L 33.96875 44.761719 L 33.96875 50.316406 L 46.402344 44.675781 L 58.84375 50.316406 L 58.84375 44.761719 Z M 46.402344 39.128906 "/>
<path style=" stroke:none;fill-rule:nonzero;fill:rgb(100%,100%,100%);fill-opacity:1;" d="M 57.210938 52.195312 L 51.101562 49.425781 L 46.402344 51.554688 L 46.402344 57.097656 Z M 57.210938 52.195312 "/>
</g>
</svg>
