<?xml version="1.0" encoding="UTF-8"?>
<svg xmlns="http://www.w3.org/2000/svg" xmlns:xlink="http://www.w3.org/1999/xlink" width="107px" height="64px" viewBox="0 0 106 64" version="1.1">
<g id="surface1">
<path style=" stroke:none;fill-rule:nonzero;fill:rgb(100%,100%,100%);fill-opacity:1;" d="M 34.683594 0.796875 C 34.867188 0.796875 35.050781 0.796875 35.242188 0.796875 C 35.382812 0.796875 35.382812 0.796875 35.53125 0.800781 C 35.816406 0.804688 36.105469 0.804688 36.394531 0.800781 C 38.613281 0.8125 38.613281 0.8125 39.125 1.328125 C 39.742188 2.214844 39.9375 3.285156 40.183594 4.320312 C 40.234375 4.527344 40.285156 4.734375 40.339844 4.945312 C 40.449219 5.386719 40.558594 5.832031 40.664062 6.277344 C 40.835938 6.984375 41.011719 7.6875 41.183594 8.390625 C 41.246094 8.632812 41.304688 8.875 41.363281 9.113281 C 41.394531 9.234375 41.421875 9.355469 41.453125 9.480469 C 41.546875 9.851562 41.636719 10.222656 41.730469 10.59375 C 42.363281 13.167969 43.015625 15.730469 43.671875 18.296875 C 43.894531 19.175781 44.117188 20.054688 44.34375 20.929688 C 44.414062 21.21875 44.488281 21.507812 44.5625 21.796875 C 44.652344 22.140625 44.738281 22.484375 44.824219 22.828125 C 44.90625 23.152344 44.992188 23.472656 45.074219 23.796875 C 45.113281 23.949219 45.152344 24.097656 45.191406 24.253906 C 45.226562 24.386719 45.261719 24.519531 45.296875 24.652344 C 45.367188 25.007812 45.367188 25.007812 45.367188 25.570312 C 45.460938 25.570312 45.554688 25.570312 45.648438 25.570312 C 45.664062 25.398438 45.679688 25.226562 45.695312 25.046875 C 45.789062 24.1875 45.988281 23.355469 46.191406 22.511719 C 46.230469 22.339844 46.273438 22.164062 46.3125 21.984375 C 46.425781 21.503906 46.539062 21.027344 46.652344 20.550781 C 46.769531 20.046875 46.890625 19.542969 47.007812 19.039062 C 47.234375 18.078125 47.457031 17.121094 47.683594 16.164062 C 47.9375 15.089844 48.191406 14.011719 48.445312 12.9375 C 48.753906 11.617188 49.066406 10.300781 49.375 8.980469 C 49.398438 8.890625 49.421875 8.796875 49.441406 8.699219 C 49.550781 8.246094 49.65625 7.792969 49.765625 7.339844 C 49.96875 6.480469 50.167969 5.625 50.367188 4.765625 C 50.402344 4.605469 50.441406 4.441406 50.480469 4.277344 C 50.550781 3.972656 50.617188 3.671875 50.6875 3.371094 C 51.070312 1.726562 51.070312 1.726562 51.652344 1.15625 C 52.484375 0.6875 53.523438 0.820312 54.445312 0.820312 C 54.605469 0.820312 54.765625 0.816406 54.933594 0.816406 C 56.621094 0.8125 56.621094 0.8125 57.410156 1.128906 C 57.964844 1.808594 58.140625 2.492188 58.332031 3.339844 C 58.363281 3.476562 58.394531 3.609375 58.425781 3.75 C 58.53125 4.195312 58.632812 4.644531 58.734375 5.09375 C 58.808594 5.410156 58.882812 5.726562 58.957031 6.042969 C 59.113281 6.707031 59.265625 7.371094 59.417969 8.035156 C 59.640625 9.003906 59.867188 9.972656 60.097656 10.941406 C 60.5 12.660156 60.898438 14.378906 61.300781 16.101562 C 61.449219 16.742188 61.601562 17.386719 61.75 18.03125 C 61.929688 18.808594 62.113281 19.589844 62.292969 20.371094 C 62.328125 20.511719 62.363281 20.65625 62.394531 20.804688 C 62.550781 21.464844 62.703125 22.121094 62.855469 22.78125 C 62.953125 23.199219 63.050781 23.613281 63.148438 24.03125 C 63.1875 24.195312 63.226562 24.359375 63.265625 24.527344 C 63.316406 24.730469 63.316406 24.730469 63.367188 24.941406 C 63.433594 25.289062 63.433594 25.289062 63.433594 25.855469 C 63.523438 25.855469 63.617188 25.855469 63.710938 25.855469 C 63.730469 25.6875 63.75 25.523438 63.765625 25.351562 C 63.835938 24.792969 63.953125 24.261719 64.09375 23.71875 C 64.117188 23.625 64.140625 23.527344 64.167969 23.429688 C 64.246094 23.117188 64.328125 22.804688 64.410156 22.492188 C 64.46875 22.265625 64.527344 22.042969 64.585938 21.816406 C 64.742188 21.207031 64.898438 20.597656 65.058594 19.992188 C 65.222656 19.355469 65.386719 18.71875 65.550781 18.082031 C 65.621094 17.820312 65.6875 17.558594 65.753906 17.296875 C 65.789062 17.167969 65.820312 17.039062 65.855469 16.902344 C 65.960938 16.503906 66.0625 16.105469 66.167969 15.703125 C 66.613281 13.980469 67.054688 12.253906 67.492188 10.527344 C 67.683594 9.777344 67.875 9.027344 68.066406 8.277344 C 68.21875 7.679688 68.371094 7.082031 68.523438 6.484375 C 68.664062 5.921875 68.804688 5.363281 68.949219 4.800781 C 69 4.597656 69.054688 4.390625 69.105469 4.1875 C 69.769531 1.527344 69.769531 1.527344 70.574219 0.988281 C 71.375 0.769531 72.207031 0.816406 73.03125 0.8125 C 73.3125 0.8125 73.59375 0.808594 73.875 0.804688 C 74.054688 0.804688 74.230469 0.800781 74.414062 0.800781 C 74.660156 0.800781 74.660156 0.800781 74.910156 0.796875 C 75.386719 0.855469 75.550781 0.9375 75.894531 1.273438 C 76.214844 2.523438 75.628906 3.875 75.242188 5.054688 C 75.175781 5.269531 75.105469 5.488281 75.035156 5.703125 C 74.890625 6.164062 74.742188 6.625 74.59375 7.085938 C 74.359375 7.816406 74.128906 8.542969 73.894531 9.273438 C 73.664062 10.011719 73.429688 10.75 73.191406 11.488281 C 72.601562 13.335938 72.027344 15.191406 71.464844 17.050781 C 71.230469 17.808594 71 18.570312 70.765625 19.328125 C 70.71875 19.480469 70.671875 19.636719 70.625 19.796875 C 70.023438 21.761719 69.421875 23.722656 68.8125 25.6875 C 68.640625 26.246094 68.46875 26.808594 68.296875 27.367188 C 68.132812 27.890625 67.972656 28.417969 67.808594 28.941406 C 67.75 29.136719 67.6875 29.328125 67.628906 29.523438 C 66.886719 31.960938 66.886719 31.960938 66.09375 32.496094 C 65.703125 32.523438 65.328125 32.535156 64.9375 32.53125 C 64.824219 32.53125 64.710938 32.53125 64.59375 32.53125 C 64.355469 32.53125 64.117188 32.53125 63.878906 32.53125 C 63.511719 32.53125 63.148438 32.53125 62.78125 32.53125 C 62.550781 32.53125 62.316406 32.53125 62.085938 32.53125 C 61.976562 32.53125 61.867188 32.53125 61.753906 32.535156 C 61.207031 32.527344 60.8125 32.507812 60.351562 32.210938 C 59.832031 31.347656 59.601562 30.460938 59.375 29.480469 C 59.335938 29.324219 59.300781 29.164062 59.261719 29.003906 C 59.136719 28.484375 59.015625 27.964844 58.894531 27.445312 C 58.804688 27.082031 58.71875 26.714844 58.632812 26.347656 C 58.425781 25.480469 58.21875 24.613281 58.011719 23.746094 C 57.785156 22.777344 57.554688 21.8125 57.324219 20.84375 C 57.210938 20.371094 57.101562 19.898438 56.988281 19.425781 C 56.964844 19.332031 56.945312 19.238281 56.921875 19.144531 C 56.683594 18.140625 56.445312 17.136719 56.207031 16.128906 C 55.636719 13.722656 55.636719 13.722656 55.0625 11.316406 C 55.007812 11.09375 54.953125 10.867188 54.902344 10.644531 C 54.828125 10.347656 54.757812 10.050781 54.6875 9.75 C 54.648438 9.589844 54.609375 9.425781 54.570312 9.257812 C 54.503906 8.914062 54.503906 8.914062 54.332031 8.757812 C 53.988281 10.183594 53.648438 11.605469 53.308594 13.027344 C 53.109375 13.863281 52.910156 14.695312 52.707031 15.53125 C 52.054688 18.253906 51.40625 20.976562 50.769531 23.703125 C 50.683594 24.054688 50.601562 24.410156 50.519531 24.761719 C 50.492188 24.875 50.464844 24.992188 50.4375 25.109375 C 50.386719 25.332031 50.332031 25.558594 50.28125 25.78125 C 50.128906 26.429688 49.976562 27.078125 49.828125 27.726562 C 49.734375 28.128906 49.640625 28.527344 49.546875 28.929688 C 49.484375 29.199219 49.421875 29.46875 49.359375 29.738281 C 48.832031 31.96875 48.832031 31.96875 48.183594 32.378906 C 47.71875 32.5625 47.246094 32.539062 46.757812 32.535156 C 46.648438 32.539062 46.539062 32.539062 46.425781 32.539062 C 46.195312 32.539062 45.960938 32.539062 45.730469 32.539062 C 45.378906 32.539062 45.027344 32.542969 44.675781 32.546875 C 44.449219 32.546875 44.222656 32.546875 44 32.546875 C 43.894531 32.546875 43.789062 32.546875 43.679688 32.550781 C 43.046875 32.542969 42.621094 32.507812 42.148438 32.070312 C 41.554688 31.089844 41.296875 29.90625 40.976562 28.8125 C 40.917969 28.613281 40.859375 28.414062 40.800781 28.214844 C 40.671875 27.789062 40.546875 27.359375 40.421875 26.933594 C 40.21875 26.25 40.015625 25.566406 39.8125 24.882812 C 39.777344 24.765625 39.746094 24.648438 39.707031 24.53125 C 39.636719 24.292969 39.566406 24.054688 39.496094 23.816406 C 39.386719 23.449219 39.28125 23.082031 39.171875 22.71875 C 38.480469 20.390625 37.78125 18.070312 37.082031 15.746094 C 36.828125 14.917969 36.582031 14.089844 36.332031 13.257812 C 36.277344 13.085938 36.277344 13.085938 36.226562 12.910156 C 36.089844 12.457031 35.953125 12 35.816406 11.546875 C 35.429688 10.261719 35.042969 8.976562 34.648438 7.691406 C 34.460938 7.066406 34.273438 6.441406 34.082031 5.816406 C 34 5.539062 33.917969 5.265625 33.832031 4.988281 C 32.933594 2.066406 32.933594 2.066406 33.1875 1.273438 C 33.636719 0.785156 34.046875 0.792969 34.683594 0.796875 Z M 34.683594 0.796875 "/>
<path style=" stroke:none;fill-rule:nonzero;fill:rgb(94.901961%,59.215689%,12.156863%);fill-opacity:1;" d="M 1.539062 41.960938 C 2.140625 42.210938 2.699219 42.535156 3.265625 42.859375 C 3.429688 42.953125 3.589844 43.042969 3.753906 43.136719 C 4.082031 43.316406 4.40625 43.5 4.734375 43.683594 C 15.691406 49.871094 28.183594 53.554688 42.550781 55.425781 C 42.734375 55.445312 42.917969 55.46875 43.105469 55.488281 C 43.71875 55.554688 44.332031 55.613281 44.949219 55.664062 C 45.085938 55.675781 45.226562 55.6875 45.371094 55.703125 C 48.109375 55.933594 50.832031 56 53.578125 55.992188 C 53.90625 55.992188 54.234375 55.992188 54.5625 55.992188 C 57.710938 55.984375 60.84375 55.933594 63.972656 55.558594 C 64.289062 55.519531 64.601562 55.484375 64.917969 55.449219 C 74.648438 54.332031 85.269531 52.207031 94.097656 47.753906 C 94.789062 47.695312 95.425781 47.660156 96.066406 47.9375 C 96.382812 48.214844 96.585938 48.460938 96.679688 48.878906 C 96.714844 49.535156 96.644531 49.921875 96.207031 50.421875 C 95.636719 51.039062 95 51.492188 94.300781 51.945312 C 94.171875 52.03125 94.042969 52.117188 93.910156 52.203125 C 89 55.40625 83.8125 57.878906 78.273438 59.761719 C 78.136719 59.808594 77.996094 59.859375 77.855469 59.90625 C 66.429688 63.894531 53.910156 64.949219 17.925781 55.945312 C 16.570312 55.277344 15.253906 54.542969 13.957031 53.769531 C 13.570312 53.539062 13.183594 53.3125 12.792969 53.085938 C 8.714844 50.710938 4.898438 47.859375 1.367188 44.71875 C 1.027344 44.421875 0.679688 44.128906 0.332031 43.839844 C 0.00390625 43.527344 0 43.351562 -0.0351562 42.886719 C 0 42.382812 0 42.382812 0.140625 42.109375 C 0.605469 41.859375 1.035156 41.871094 1.539062 41.960938 Z M 1.539062 41.960938 "/>
<path style=" stroke:none;fill-rule:nonzero;fill:rgb(100%,100%,100%);fill-opacity:1;" d="M 17.757812 -0.0429688 C 17.855469 -0.0429688 17.953125 -0.0429688 18.050781 -0.0429688 C 21.367188 -0.03125 24.65625 0.523438 27.144531 2.933594 C 29.8125 5.746094 30.003906 9.542969 30.007812 13.222656 C 30.007812 13.699219 30.011719 14.175781 30.015625 14.65625 C 30.023438 16.011719 30.027344 17.367188 30.03125 18.726562 C 30.03125 19.558594 30.035156 20.394531 30.042969 21.226562 C 30.042969 21.542969 30.042969 21.859375 30.042969 22.175781 C 30.042969 24.273438 30.136719 26.058594 31.101562 27.957031 C 31.769531 29.273438 31.769531 29.273438 31.785156 29.953125 C 31.410156 30.835938 30.589844 31.269531 29.824219 31.789062 C 29.703125 31.875 29.582031 31.960938 29.457031 32.050781 C 28.785156 32.496094 28.269531 32.730469 27.460938 32.722656 C 26.691406 32.5 26.273438 31.847656 25.84375 31.214844 C 25.789062 31.132812 25.734375 31.054688 25.679688 30.972656 C 25.191406 30.238281 24.765625 29.46875 24.363281 28.679688 C 24.257812 28.816406 24.152344 28.953125 24.039062 29.09375 C 22.074219 31.394531 18.972656 33.066406 15.964844 33.34375 C 12.734375 33.542969 9.75 33.292969 7.1875 31.109375 C 6.234375 30.199219 5.550781 29.1875 5.039062 27.972656 C 5 27.878906 4.957031 27.785156 4.914062 27.6875 C 3.9375 25.148438 4.1875 21.953125 5.21875 19.492188 C 5.710938 18.511719 6.375 17.730469 7.140625 16.953125 C 7.234375 16.855469 7.332031 16.757812 7.429688 16.652344 C 8.773438 15.339844 10.523438 14.570312 12.324219 14.128906 C 12.441406 14.097656 12.558594 14.066406 12.679688 14.035156 C 16.347656 13.238281 20.199219 13.910156 23.804688 14.691406 C 23.816406 14.101562 23.824219 13.511719 23.828125 12.921875 C 23.828125 12.722656 23.832031 12.523438 23.835938 12.324219 C 23.871094 10.394531 23.703125 8.535156 22.542969 6.921875 C 21.347656 5.675781 19.511719 5.234375 17.847656 5.179688 C 14.566406 5.136719 11.574219 5.644531 8.570312 7.019531 C 8.152344 7.191406 7.890625 7.257812 7.449219 7.25 C 7.34375 7.25 7.238281 7.25 7.128906 7.246094 C 6.859375 7.207031 6.859375 7.207031 6.582031 6.921875 C 6.398438 6.351562 6.414062 5.777344 6.414062 5.183594 C 6.414062 5.078125 6.410156 4.976562 6.410156 4.867188 C 6.40625 3.296875 6.40625 3.296875 6.941406 2.738281 C 7.632812 2.175781 8.386719 1.847656 9.214844 1.546875 C 9.34375 1.496094 9.472656 1.449219 9.601562 1.402344 C 10.445312 1.09375 11.296875 0.820312 12.164062 0.582031 C 12.261719 0.554688 12.359375 0.527344 12.460938 0.5 C 14.203125 0.0546875 15.96875 -0.0546875 17.757812 -0.0429688 Z M 12.042969 19.777344 C 10.902344 20.992188 10.585938 22.445312 10.605469 24.082031 C 10.710938 25.464844 11.128906 26.636719 12.183594 27.550781 C 13.574219 28.648438 15.242188 28.703125 16.941406 28.539062 C 19.125 28.195312 21.210938 27.324219 22.640625 25.5625 C 23.484375 24.371094 23.964844 22.980469 23.957031 21.511719 C 23.957031 21.359375 23.957031 21.210938 23.957031 21.054688 C 23.957031 20.898438 23.953125 20.742188 23.953125 20.582031 C 23.953125 20.425781 23.953125 20.265625 23.953125 20.101562 C 23.949219 19.710938 23.949219 19.320312 23.945312 18.929688 C 20.351562 17.9375 15.136719 17.140625 12.042969 19.777344 Z M 12.042969 19.777344 "/>
<path style=" stroke:none;fill-rule:nonzero;fill:rgb(100%,100%,100%);fill-opacity:1;" d="M 99 1.976562 C 99.546875 2.460938 99.804688 2.945312 99.863281 3.675781 C 99.867188 4.003906 99.871094 4.328125 99.875 4.652344 C 99.878906 4.824219 99.878906 4.824219 99.882812 4.996094 C 99.886719 5.652344 99.867188 6.121094 99.417969 6.640625 C 98.46875 6.816406 97.761719 6.507812 96.902344 6.136719 C 94.023438 4.90625 90.210938 4.488281 87.21875 5.480469 C 86.167969 5.925781 85.355469 6.464844 84.839844 7.523438 C 84.546875 8.4375 84.535156 9.628906 84.925781 10.515625 C 86.382812 12.886719 89.929688 13.496094 92.371094 14.261719 C 98.972656 16.339844 98.972656 16.339844 100.546875 19.308594 C 101.617188 21.484375 101.894531 23.890625 101.253906 26.261719 C 100.261719 29.085938 98.421875 30.964844 95.789062 32.265625 C 93.675781 33.25 91.355469 33.539062 89.046875 33.527344 C 88.78125 33.527344 88.78125 33.527344 88.511719 33.527344 C 85.347656 33.484375 81.035156 32.992188 78.554688 30.800781 C 78.273438 30.34375 78.238281 29.984375 78.238281 29.453125 C 78.238281 29.304688 78.238281 29.152344 78.238281 29 C 78.238281 28.84375 78.238281 28.691406 78.238281 28.53125 C 78.238281 28.375 78.238281 28.21875 78.238281 28.058594 C 78.238281 27.910156 78.238281 27.761719 78.238281 27.605469 C 78.238281 27.46875 78.238281 27.335938 78.238281 27.195312 C 78.273438 26.84375 78.273438 26.84375 78.554688 26.417969 C 79.507812 26.304688 80.207031 26.582031 81.074219 26.949219 C 82.324219 27.453125 83.539062 27.84375 84.855469 28.113281 C 85.003906 28.144531 85.148438 28.179688 85.300781 28.210938 C 88.152344 28.726562 91.597656 28.773438 94.097656 27.125 C 94.917969 26.441406 95.351562 25.644531 95.496094 24.582031 C 95.527344 23.605469 95.394531 22.6875 94.796875 21.898438 C 93.082031 20.109375 90.140625 19.582031 87.871094 18.886719 C 84.691406 17.910156 81.316406 16.738281 79.640625 13.609375 C 78.472656 11.3125 78.214844 8.988281 78.976562 6.5 C 79.949219 3.933594 81.855469 2.183594 84.308594 1.042969 C 88.5 -0.792969 95.066406 -0.605469 99 1.976562 Z M 99 1.976562 "/>
<path style=" stroke:none;fill-rule:nonzero;fill:rgb(94.901961%,59.215689%,12.156863%);fill-opacity:1;" d="M 98.089844 39.808594 C 98.425781 39.804688 98.761719 39.800781 99.097656 39.796875 C 103.859375 39.765625 103.859375 39.765625 105.402344 41.03125 C 106.183594 41.894531 106.058594 43.085938 106.019531 44.1875 C 105.679688 50.007812 103.0625 55.535156 98.859375 59.480469 C 98.4375 59.691406 98.0625 59.644531 97.597656 59.621094 C 97.320312 59.335938 97.320312 59.335938 97.28125 58.953125 C 97.324219 58.433594 97.453125 58.054688 97.648438 57.574219 C 97.71875 57.394531 97.789062 57.214844 97.859375 57.039062 C 97.898438 56.945312 97.933594 56.851562 97.972656 56.757812 C 98.167969 56.265625 98.363281 55.773438 98.550781 55.28125 C 98.589844 55.179688 98.628906 55.082031 98.667969 54.980469 C 100.410156 50.511719 100.410156 50.511719 100.679688 45.773438 C 100.394531 45.1875 100.148438 44.921875 99.558594 44.644531 C 96.539062 43.730469 93.136719 44.203125 90.046875 44.511719 C 89.164062 44.597656 88.285156 44.679688 87.398438 44.746094 C 87.21875 44.761719 87.035156 44.777344 86.847656 44.789062 C 86.394531 44.785156 86.394531 44.785156 85.976562 44.503906 C 85.992188 43.65625 85.992188 43.65625 86.304688 43.296875 C 86.902344 42.800781 87.503906 42.390625 88.191406 42.03125 C 88.292969 41.976562 88.394531 41.921875 88.503906 41.867188 C 91.484375 40.347656 94.777344 39.816406 98.089844 39.808594 Z M 98.089844 39.808594 "/>
</g>
</svg>
