<?xml version="1.0" encoding="UTF-8"?>
<svg xmlns="http://www.w3.org/2000/svg" xmlns:xlink="http://www.w3.org/1999/xlink" width="64px" height="64px" viewBox="0 0 64 64" version="1.1">
<g id="surface1">
<path style=" stroke:none;fill-rule:nonzero;fill:rgb(14.509805%,18.431373%,24.313726%);fill-opacity:1;" d="M 18.039062 30.746094 C 18.039062 31.535156 18.121094 32.175781 18.273438 32.648438 C 18.441406 33.117188 18.65625 33.628906 18.953125 34.183594 C 19.101562 34.886719 18.972656 35.105469 18.699219 35.316406 L 17.355469 36.210938 C 16.589844 36.402344 16.375 36.300781 16.164062 36.109375 C 15.875 35.796875 15.621094 35.460938 15.394531 35.105469 C 15.15625 34.695312 14.9375 34.273438 14.734375 33.84375 C 13.074219 35.808594 10.992188 36.792969 8.480469 36.792969 C 6.691406 36.792969 5.265625 36.277344 4.222656 35.253906 C 3.179688 34.226562 2.648438 32.859375 2.648438 31.152344 C 2.648438 29.335938 3.289062 27.863281 4.585938 26.753906 C 5.882812 25.640625 7.609375 25.089844 9.800781 25.089844 C 10.519531 25.089844 11.269531 25.152344 12.054688 25.257812 C 12.84375 25.363281 13.65625 25.535156 14.503906 25.726562 L 14.503906 24.167969 C 14.503906 22.542969 14.164062 21.410156 13.503906 20.753906 C 12.824219 20.089844 11.671875 19.769531 10.03125 19.769531 C 9.289062 19.769531 8.523438 19.855469 7.734375 20.046875 C 6.953125 20.234375 6.183594 20.476562 5.4375 20.773438 C 5.195312 20.882812 4.945312 20.976562 4.691406 21.050781 C 4.050781 21.117188 3.902344 20.898438 3.902344 20.453125 L 3.902344 19.402344 C 3.902344 19.0625 3.945312 18.804688 4.050781 18.660156 C 5.390625 17.824219 6.289062 17.503906 7.332031 17.246094 C 8.371094 16.96875 9.480469 16.84375 10.652344 16.84375 C 13.183594 16.84375 15.035156 17.421875 16.226562 18.570312 C 17.398438 19.722656 17.996094 21.476562 17.996094 23.828125 L 17.996094 30.746094 Z M 9.394531 33.992188 C 10.097656 33.992188 10.820312 33.863281 11.589844 33.609375 C 12.351562 33.351562 13.035156 32.878906 13.609375 32.238281 C 13.949219 31.847656 14.199219 31.378906 14.332031 30.875 C 14.460938 30.359375 14.546875 29.742188 14.546875 29.015625 L 14.546875 28.121094 C 13.902344 27.964844 13.246094 27.84375 12.589844 27.761719 C 11.925781 27.675781 11.257812 27.628906 10.589844 27.628906 C 9.160156 27.628906 8.117188 27.90625 7.414062 28.484375 C 6.710938 29.058594 6.375 29.871094 6.375 30.941406 C 6.375 31.941406 6.628906 32.6875 7.160156 33.203125 C 7.671875 33.734375 8.414062 33.992188 9.394531 33.992188 Z M 26.488281 36.300781 C 26.105469 36.300781 25.847656 36.234375 25.679688 36.085938 C 25.507812 35.957031 25.359375 35.660156 25.230469 35.253906 L 20.230469 18.742188 C 20.132812 18.46875 20.066406 18.179688 20.035156 17.886719 C 20.035156 17.546875 20.207031 17.355469 20.546875 17.355469 L 22.636719 17.355469 C 23.035156 17.355469 23.316406 17.421875 23.464844 17.566406 C 23.636719 17.695312 23.765625 17.996094 23.890625 18.398438 L 27.46875 32.539062 L 30.789062 18.398438 C 30.890625 17.976562 31.019531 17.695312 31.1875 17.566406 L 33.742188 17.355469 C 34.152344 17.355469 34.425781 17.421875 34.597656 17.566406 C 34.769531 17.695312 34.914062 17.996094 35 18.398438 L 38.363281 32.710938 L 42.042969 18.398438 L 45.285156 17.355469 C 45.625 17.355469 45.816406 17.527344 45.816406 17.886719 C 45.816406 17.996094 45.792969 18.105469 45.777344 18.230469 L 40.492188 35.273438 C 40.363281 35.699219 40.214844 35.980469 40.046875 36.109375 L 37.40625 36.320312 C 37.003906 36.320312 36.726562 36.257812 36.554688 36.109375 C 36.382812 35.957031 36.234375 35.679688 36.152344 35.253906 L 32.851562 21.480469 L 29.570312 35.234375 C 29.46875 35.664062 29.339844 35.941406 29.171875 36.089844 C 29 36.238281 28.699219 36.304688 28.320312 36.304688 L 26.488281 36.304688 Z M 53.839844 36.875 C 52.734375 36.878906 51.632812 36.75 50.558594 36.492188 C 49.496094 36.234375 48.667969 35.957031 48.113281 35.636719 C 47.773438 35.445312 47.539062 35.230469 47.453125 35.035156 L 47.328125 33.351562 C 47.328125 32.902344 47.496094 32.6875 47.816406 32.6875 C 48.328125 32.796875 48.519531 32.878906 48.730469 32.96875 C 49.453125 33.289062 50.242188 33.542969 51.070312 33.714844 C 51.925781 33.882812 52.753906 33.972656 53.605469 33.972656 C 54.949219 33.972656 55.988281 33.734375 56.710938 33.269531 C 57.421875 32.839844 57.84375 32.0625 57.820312 31.234375 C 57.835938 30.683594 57.628906 30.144531 57.242188 29.742188 C 56.863281 29.335938 56.140625 28.972656 55.097656 28.632812 L 52.007812 27.671875 C 50.457031 27.179688 49.304688 26.453125 48.605469 25.492188 C 47.917969 24.605469 47.542969 23.515625 47.539062 22.394531 C 47.539062 21.5 47.730469 20.707031 48.113281 20.023438 C 48.496094 19.34375 49.007812 18.742188 49.648438 18.273438 C 50.289062 17.785156 51.007812 17.421875 51.859375 17.164062 C 52.710938 16.90625 53.605469 16.800781 54.539062 16.800781 C 55.011719 16.800781 55.5 16.820312 55.96875 16.882812 C 56.457031 16.949219 56.902344 17.035156 57.351562 17.125 C 57.777344 17.226562 58.183594 17.332031 58.5625 17.464844 C 58.949219 17.59375 59.242188 17.71875 59.460938 17.847656 L 60.289062 20.089844 C 60.289062 20.535156 60.121094 20.773438 59.800781 20.773438 C 57.707031 19.945312 56.3125 19.660156 54.902344 19.683594 C 53.691406 19.683594 52.730469 19.875 52.070312 20.285156 C 51.410156 20.683594 51.070312 21.308594 51.070312 22.183594 C 51.070312 22.78125 51.285156 23.292969 51.710938 23.699219 C 52.136719 24.105469 52.925781 24.507812 54.050781 24.871094 L 57.074219 25.832031 C 58.609375 26.324219 59.714844 27.007812 60.375 27.882812 C 61.035156 28.761719 61.351562 29.765625 61.351562 30.875 C 61.351562 31.796875 61.164062 32.625 60.800781 33.351562 C 60.421875 34.082031 59.894531 34.722656 59.246094 35.230469 C 58.589844 35.765625 57.800781 36.152344 56.882812 36.429688 C 55.925781 36.726562 54.925781 36.875 53.839844 36.875 Z M 53.839844 36.875 "/>
<path style=" stroke:none;fill-rule:evenodd;fill:rgb(100%,60.000002%,0%);fill-opacity:1;" d="M 57.859375 47.253906 C 50.859375 52.441406 40.683594 55.195312 31.9375 55.195312 C 19.675781 55.195312 8.628906 50.648438 0.285156 43.089844 C -0.375 42.488281 0.21875 41.675781 1.003906 42.148438 C 10.03125 47.398438 21.164062 50.585938 32.683594 50.585938 C 40.449219 50.585938 48.984375 48.960938 56.839844 45.628906 C 58.011719 45.097656 59.011719 46.394531 57.859375 47.253906 Z M 57.859375 47.253906 "/>
<path style=" stroke:none;fill-rule:evenodd;fill:rgb(100%,60.000002%,0%);fill-opacity:1;" d="M 60.777344 43.921875 C 59.882812 42.773438 54.859375 43.367188 52.585938 43.644531 C 51.902344 43.730469 51.796875 43.132812 52.410156 42.683594 C 56.410156 39.863281 62.992188 40.675781 63.757812 41.617188 C 64.523438 42.574219 63.542969 49.175781 59.796875 52.335938 C 59.222656 52.828125 58.671875 52.574219 58.925781 51.9375 C 59.777344 49.816406 61.671875 45.054688 60.777344 43.925781 Z M 60.777344 43.921875 "/>
</g>
</svg>
