<?xml version="1.0" encoding="UTF-8"?>
<svg xmlns="http://www.w3.org/2000/svg" xmlns:xlink="http://www.w3.org/1999/xlink" width="56px" height="64px" viewBox="0 0 56 63" version="1.1">
<g id="surface1">
<path style=" stroke:none;fill-rule:evenodd;fill:rgb(89.411765%,30.19608%,14.901961%);fill-opacity:1;" d="M 56 0.132812 L 50.898438 56.589844 L 27.964844 62.867188 L 5.097656 56.597656 L 0 0.132812 Z M 56 0.132812 "/>
<path style=" stroke:none;fill-rule:evenodd;fill:rgb(94.509804%,39.607844%,16.078432%);fill-opacity:1;" d="M 27.996094 58.070312 L 46.53125 52.992188 L 50.886719 4.746094 L 27.996094 4.746094 Z M 27.996094 58.070312 "/>
<path style=" stroke:none;fill-rule:evenodd;fill:rgb(92.156863%,92.156863%,92.156863%);fill-opacity:1;" d="M 18.085938 18.597656 L 28.003906 18.597656 L 28.003906 11.675781 L 10.417969 11.675781 L 10.585938 13.535156 L 12.304688 32.617188 L 27.992188 32.617188 L 27.992188 25.691406 L 18.726562 25.691406 Z M 19.660156 36.078125 L 12.625 36.078125 L 13.609375 46.953125 L 27.972656 50.890625 L 28.003906 50.878906 L 28.003906 43.675781 L 27.972656 43.6875 L 20.160156 41.605469 Z M 19.660156 36.078125 "/>
<path style=" stroke:none;fill-rule:evenodd;fill:rgb(100%,100%,100%);fill-opacity:1;" d="M 27.976562 32.617188 L 36.609375 32.617188 L 35.796875 41.597656 L 27.976562 43.679688 L 27.976562 50.886719 L 42.351562 46.949219 L 42.453125 45.78125 L 44.101562 27.546875 L 44.273438 25.691406 L 27.976562 25.691406 Z M 27.976562 18.582031 L 27.976562 18.597656 L 44.910156 18.597656 L 45.046875 17.042969 L 45.367188 13.527344 L 45.535156 11.671875 L 27.976562 11.671875 Z M 27.976562 18.582031 "/>
</g>
</svg>
