<?xml version="1.0" encoding="UTF-8"?>
<svg xmlns="http://www.w3.org/2000/svg" xmlns:xlink="http://www.w3.org/1999/xlink" width="64px" height="64px" viewBox="0 0 64 64" version="1.1">
<g id="surface1">
<path style=" stroke:none;fill-rule:nonzero;fill:rgb(56.862748%,14.901961%,14.901961%);fill-opacity:1;" d="M 61.492188 46.734375 C 58.078125 48.515625 40.382812 55.789062 36.617188 57.753906 C 32.851562 59.71875 30.757812 59.699219 27.78125 58.277344 C 24.808594 56.855469 5.976562 49.25 2.585938 47.628906 C 0.890625 46.816406 0 46.132812 0 45.488281 L 0 39.019531 C 0 39.019531 24.511719 33.683594 28.46875 32.261719 C 32.425781 30.84375 33.800781 30.792969 37.167969 32.023438 C 40.535156 33.257812 60.671875 36.890625 64 38.109375 C 64 38.109375 64 43.890625 64 44.488281 C 64 45.128906 63.230469 45.828125 61.492188 46.734375 "/>
<path style=" stroke:none;fill-rule:nonzero;fill:rgb(77.64706%,18.82353%,16.862746%);fill-opacity:1;" d="M 61.492188 40.304688 C 58.074219 42.085938 40.382812 49.359375 36.617188 51.324219 C 32.851562 53.289062 30.757812 53.269531 27.78125 51.84375 C 24.804688 50.425781 5.980469 42.816406 2.585938 41.195312 C -0.804688 39.574219 -0.875 38.460938 2.457031 37.15625 C 5.789062 35.851562 24.511719 28.503906 28.46875 27.085938 C 32.425781 25.664062 33.800781 25.613281 37.167969 26.847656 C 40.535156 28.082031 58.121094 35.082031 61.449219 36.300781 C 64.777344 37.519531 64.90625 38.523438 61.492188 40.304688 "/>
<path style=" stroke:none;fill-rule:nonzero;fill:rgb(56.862748%,14.901961%,14.901961%);fill-opacity:1;" d="M 61.492188 36.269531 C 58.078125 38.050781 40.382812 45.324219 36.617188 47.289062 C 32.851562 49.25 30.757812 49.230469 27.78125 47.808594 C 24.804688 46.386719 5.976562 38.78125 2.585938 37.160156 C 0.890625 36.351562 0 35.667969 0 35.019531 L 0 28.550781 C 0 28.550781 24.511719 23.214844 28.46875 21.796875 C 32.425781 20.375 33.800781 20.324219 37.167969 21.558594 C 40.535156 22.792969 60.671875 26.425781 64 27.644531 C 64 27.644531 64 33.421875 64 34.023438 C 64 34.660156 63.230469 35.363281 61.492188 36.269531 "/>
<path style=" stroke:none;fill-rule:nonzero;fill:rgb(77.64706%,18.82353%,16.862746%);fill-opacity:1;" d="M 61.492188 29.835938 C 58.074219 31.617188 40.382812 38.890625 36.617188 40.855469 C 32.851562 42.820312 30.757812 42.800781 27.78125 41.378906 C 24.804688 39.957031 5.980469 32.351562 2.585938 30.730469 C -0.804688 29.109375 -0.875 27.992188 2.457031 26.6875 C 5.789062 25.382812 24.511719 18.035156 28.46875 16.617188 C 32.425781 15.199219 33.800781 15.148438 37.167969 16.378906 C 40.535156 17.613281 58.121094 24.613281 61.449219 25.832031 C 64.777344 27.050781 64.90625 28.058594 61.492188 29.835938 "/>
<path style=" stroke:none;fill-rule:nonzero;fill:rgb(56.862748%,14.901961%,14.901961%);fill-opacity:1;" d="M 61.492188 25.414062 C 58.078125 27.195312 40.382812 34.46875 36.617188 36.433594 C 32.851562 38.394531 30.757812 38.378906 27.78125 36.953125 C 24.804688 35.53125 5.976562 27.925781 2.585938 26.304688 C 0.890625 25.496094 0 24.8125 0 24.167969 L 0 17.695312 C 0 17.695312 24.511719 12.359375 28.46875 10.941406 C 32.425781 9.519531 33.800781 9.46875 37.167969 10.703125 C 40.535156 11.9375 60.671875 15.570312 64 16.789062 C 64 16.789062 64 22.566406 64 23.167969 C 64 23.804688 63.230469 24.507812 61.492188 25.414062 "/>
<path style=" stroke:none;fill-rule:nonzero;fill:rgb(77.64706%,18.82353%,16.862746%);fill-opacity:1;" d="M 61.492188 18.980469 C 58.074219 20.761719 40.382812 28.039062 36.617188 30 C 32.851562 31.964844 30.757812 31.945312 27.78125 30.523438 C 24.808594 29.101562 5.980469 21.496094 2.585938 19.875 C -0.804688 18.253906 -0.875 17.136719 2.457031 15.832031 C 5.789062 14.527344 24.511719 7.183594 28.46875 5.761719 C 32.425781 4.34375 33.800781 4.292969 37.167969 5.523438 C 40.535156 6.757812 58.121094 13.757812 61.449219 14.976562 C 64.777344 16.195312 64.90625 17.203125 61.492188 18.980469 "/>
<path style=" stroke:none;fill-rule:nonzero;fill:rgb(100%,100%,100%);fill-opacity:1;" d="M 39.820312 12.6875 L 34.320312 13.261719 L 33.085938 16.222656 L 31.097656 12.917969 L 24.742188 12.347656 L 29.484375 10.636719 L 28.0625 8.011719 L 32.5 9.746094 L 36.683594 8.378906 L 35.554688 11.089844 L 39.820312 12.6875 "/>
<path style=" stroke:none;fill-rule:nonzero;fill:rgb(100%,100%,100%);fill-opacity:1;" d="M 32.757812 27.070312 L 22.488281 22.808594 L 37.203125 20.550781 L 32.757812 27.070312 "/>
<path style=" stroke:none;fill-rule:nonzero;fill:rgb(100%,100%,100%);fill-opacity:1;" d="M 18.519531 14.335938 C 22.863281 14.335938 26.386719 15.703125 26.386719 17.386719 C 26.386719 19.070312 22.863281 20.433594 18.519531 20.433594 C 14.175781 20.433594 10.65625 19.070312 10.65625 17.386719 C 10.65625 15.703125 14.175781 14.335938 18.519531 14.335938 "/>
<path style=" stroke:none;fill-rule:nonzero;fill:rgb(38.431373%,10.588235%,10.980392%);fill-opacity:1;" d="M 46.324219 13.5 L 55.03125 16.941406 L 46.332031 20.378906 L 46.324219 13.5 "/>
<path style=" stroke:none;fill-rule:nonzero;fill:rgb(60.392159%,16.078432%,15.686275%);fill-opacity:1;" d="M 36.6875 17.3125 L 46.324219 13.5 L 46.332031 20.378906 L 45.386719 20.75 L 36.6875 17.3125 "/>
</g>
</svg>
