<?xml version="1.0" encoding="UTF-8"?>
<svg xmlns="http://www.w3.org/2000/svg" xmlns:xlink="http://www.w3.org/1999/xlink" width="65px" height="65px" viewBox="0 0 65 65" version="1.1">
<g id="surface1">
<path style=" stroke:none;fill-rule:nonzero;fill:rgb(36.470589%,52.941179%,63.137257%);fill-opacity:1;" d="M 19.898438 46.359375 L 18.136719 46.359375 C 18.074219 43.390625 17.902344 40.597656 17.625 37.980469 L 17.609375 37.980469 L 14.929688 46.359375 L 13.589844 46.359375 L 10.925781 37.980469 L 10.910156 37.980469 C 10.710938 40.492188 10.589844 43.285156 10.535156 46.359375 L 8.933594 46.359375 C 9.035156 42.621094 9.296875 39.117188 9.710938 35.84375 L 11.890625 35.84375 L 14.429688 43.570312 L 14.445312 43.570312 L 17 35.84375 L 19.085938 35.84375 C 19.542969 39.675781 19.8125 43.183594 19.898438 46.359375 M 27.527344 38.601562 C 26.8125 42.492188 25.867188 45.316406 24.695312 47.078125 C 23.78125 48.4375 22.777344 49.117188 21.6875 49.117188 C 21.398438 49.117188 21.039062 49.027344 20.613281 48.855469 L 20.613281 47.917969 C 20.820312 47.945312 21.0625 47.964844 21.34375 47.964844 C 21.855469 47.964844 22.261719 47.824219 22.574219 47.542969 C 22.949219 47.199219 23.136719 46.816406 23.136719 46.390625 C 23.136719 46.097656 22.988281 45.503906 22.699219 44.597656 L 20.769531 38.601562 L 22.496094 38.601562 L 23.882812 43.085938 C 24.195312 44.105469 24.324219 44.816406 24.273438 45.222656 C 25.03125 43.199219 25.558594 40.988281 25.863281 38.601562 Z M 27.527344 38.601562 "/>
<path style=" stroke:none;fill-rule:nonzero;fill:rgb(97.254902%,59.607846%,11.372549%);fill-opacity:1;" d="M 50.953125 46.359375 L 45.953125 46.359375 L 45.953125 35.84375 L 47.636719 35.84375 L 47.636719 45.066406 L 50.953125 45.066406 Z M 44.644531 46.613281 L 42.710938 45.660156 C 42.882812 45.519531 43.046875 45.367188 43.195312 45.191406 C 44.015625 44.226562 44.425781 42.796875 44.425781 40.90625 C 44.425781 37.429688 43.0625 35.6875 40.332031 35.6875 C 38.992188 35.6875 37.945312 36.128906 37.199219 37.011719 C 36.378906 37.980469 35.96875 39.402344 35.96875 41.28125 C 35.96875 43.128906 36.332031 44.484375 37.058594 45.34375 C 37.722656 46.125 38.726562 46.515625 40.066406 46.515625 C 40.566406 46.515625 41.023438 46.453125 41.441406 46.328125 L 43.960938 47.792969 Z M 38.382812 44.253906 C 37.957031 43.570312 37.746094 42.472656 37.746094 40.953125 C 37.746094 38.308594 38.550781 36.980469 40.160156 36.980469 C 41 36.980469 41.617188 37.300781 42.011719 37.933594 C 42.4375 38.617188 42.652344 39.707031 42.652344 41.203125 C 42.652344 43.871094 41.847656 45.207031 40.238281 45.207031 C 39.394531 45.207031 38.777344 44.890625 38.382812 44.253906 M 35.238281 43.445312 C 35.238281 44.335938 34.910156 45.066406 34.253906 45.640625 C 33.601562 46.210938 32.722656 46.496094 31.625 46.496094 C 30.597656 46.496094 29.597656 46.167969 28.632812 45.515625 L 29.085938 44.613281 C 29.917969 45.027344 30.667969 45.234375 31.34375 45.234375 C 31.976562 45.234375 32.472656 45.09375 32.832031 44.816406 C 33.191406 44.535156 33.402344 44.144531 33.402344 43.648438 C 33.402344 43.023438 32.96875 42.492188 32.167969 42.042969 C 31.433594 41.640625 29.957031 40.792969 29.957031 40.792969 C 29.160156 40.210938 28.761719 39.585938 28.761719 38.554688 C 28.761719 37.703125 29.058594 37.015625 29.65625 36.492188 C 30.253906 35.96875 31.023438 35.707031 31.96875 35.707031 C 32.945312 35.707031 33.832031 35.96875 34.628906 36.484375 L 34.226562 37.386719 C 33.542969 37.097656 32.867188 36.953125 32.203125 36.953125 C 31.664062 36.953125 31.246094 37.082031 30.957031 37.339844 C 30.664062 37.601562 30.484375 37.933594 30.484375 38.339844 C 30.484375 38.960938 30.929688 39.5 31.75 39.957031 C 32.496094 40.363281 34.007812 41.222656 34.007812 41.222656 C 34.828125 41.804688 35.238281 42.421875 35.238281 43.445312 "/>
<path style=" stroke:none;fill-rule:nonzero;fill:rgb(36.470589%,52.941179%,63.137257%);fill-opacity:1;" d="M 53.0625 32.324219 C 52.046875 32.296875 51.257812 32.402344 50.597656 32.679688 C 50.40625 32.757812 50.105469 32.757812 50.078125 32.996094 C 50.179688 33.097656 50.191406 33.265625 50.28125 33.40625 C 50.433594 33.660156 50.699219 34 50.941406 34.179688 C 51.210938 34.382812 51.476562 34.585938 51.757812 34.761719 C 52.25 35.066406 52.8125 35.246094 53.292969 35.550781 C 53.574219 35.726562 53.851562 35.957031 54.132812 36.148438 C 54.269531 36.25 54.359375 36.414062 54.539062 36.476562 L 54.539062 36.4375 C 54.449219 36.324219 54.421875 36.160156 54.335938 36.03125 L 53.953125 35.664062 C 53.585938 35.167969 53.125 34.738281 52.632812 34.382812 C 52.226562 34.101562 51.335938 33.722656 51.171875 33.253906 L 51.144531 33.226562 C 51.425781 33.199219 51.757812 33.097656 52.023438 33.019531 C 52.453125 32.90625 52.847656 32.933594 53.292969 32.820312 C 53.496094 32.769531 53.699219 32.703125 53.902344 32.640625 L 53.902344 32.527344 C 53.671875 32.296875 53.507812 31.996094 53.265625 31.777344 C 52.621094 31.21875 51.90625 30.671875 51.171875 30.214844 C 50.777344 29.960938 50.269531 29.796875 49.851562 29.582031 C 49.699219 29.503906 49.441406 29.464844 49.355469 29.339844 C 49.125 29.058594 49 28.691406 48.832031 28.359375 C 48.464844 27.664062 48.109375 26.886719 47.792969 26.148438 C 47.5625 25.65625 47.421875 25.160156 47.144531 24.703125 C 45.835938 22.542969 44.414062 21.234375 42.226562 19.949219 C 41.757812 19.683594 41.199219 19.570312 40.601562 19.429688 L 39.648438 19.378906 C 39.445312 19.289062 39.242188 19.046875 39.066406 18.933594 C 38.339844 18.476562 36.472656 17.488281 35.941406 18.792969 C 35.597656 19.621094 36.449219 20.433594 36.742188 20.851562 C 36.957031 21.144531 37.238281 21.476562 37.386719 21.804688 C 37.476562 22.023438 37.503906 22.25 37.589844 22.480469 C 37.796875 23.039062 37.984375 23.660156 38.253906 24.183594 C 38.390625 24.449219 38.542969 24.726562 38.722656 24.96875 C 38.824219 25.109375 39 25.171875 39.039062 25.402344 C 38.863281 25.652344 38.847656 26.035156 38.746094 26.351562 C 38.289062 27.789062 38.46875 29.566406 39.117188 30.621094 C 39.320312 30.9375 39.804688 31.636719 40.449219 31.371094 C 41.023438 31.140625 40.894531 30.417969 41.058594 29.78125 C 41.097656 29.628906 41.074219 29.527344 41.148438 29.429688 L 41.148438 29.453125 C 41.328125 29.808594 41.503906 30.152344 41.667969 30.507812 C 42.0625 31.128906 42.75 31.777344 43.320312 32.207031 C 43.625 32.4375 43.867188 32.832031 44.25 32.972656 L 44.25 32.933594 L 44.222656 32.933594 C 44.144531 32.820312 44.03125 32.769531 43.929688 32.679688 C 43.703125 32.453125 43.449219 32.171875 43.269531 31.917969 C 42.738281 31.207031 42.265625 30.417969 41.847656 29.605469 C 41.644531 29.210938 41.46875 28.78125 41.300781 28.386719 C 41.226562 28.234375 41.226562 28.003906 41.097656 27.929688 C 40.90625 28.207031 40.628906 28.449219 40.488281 28.792969 C 40.246094 29.339844 40.222656 30.011719 40.132812 30.710938 L 40.082031 30.734375 C 39.679688 30.632812 39.535156 30.214844 39.382812 29.859375 C 39.003906 28.957031 38.9375 27.507812 39.269531 26.46875 C 39.359375 26.203125 39.738281 25.363281 39.585938 25.109375 C 39.511719 24.867188 39.257812 24.726562 39.117188 24.535156 C 38.953125 24.296875 38.773438 23.992188 38.660156 23.722656 C 38.355469 23.011719 38.203125 22.226562 37.875 21.515625 C 37.71875 21.183594 37.453125 20.839844 37.238281 20.535156 C 36.996094 20.191406 36.730469 19.949219 36.539062 19.542969 C 36.476562 19.40625 36.386719 19.175781 36.488281 19.023438 C 36.511719 18.921875 36.5625 18.882812 36.664062 18.859375 C 36.832031 18.71875 37.300781 18.894531 37.464844 18.972656 C 37.9375 19.164062 38.332031 19.339844 38.722656 19.609375 C 38.902344 19.734375 39.09375 19.976562 39.320312 20.039062 L 39.585938 20.039062 C 39.992188 20.128906 40.449219 20.066406 40.832031 20.179688 C 41.503906 20.394531 42.113281 20.714844 42.660156 21.054688 C 44.324219 22.109375 45.699219 23.609375 46.625 25.402344 C 46.777344 25.691406 46.839844 25.960938 46.980469 26.265625 C 47.246094 26.886719 47.578125 27.523438 47.84375 28.132812 C 48.109375 28.730469 48.363281 29.339844 48.746094 29.832031 C 48.9375 30.101562 49.699219 30.238281 50.042969 30.378906 C 50.296875 30.492188 50.691406 30.59375 50.917969 30.734375 C 51.351562 31 51.78125 31.308594 52.1875 31.601562 C 52.390625 31.753906 53.027344 32.070312 53.0625 32.324219 M 40.105469 21.285156 C 39.929688 21.28125 39.753906 21.304688 39.585938 21.347656 L 39.585938 21.375 L 39.609375 21.375 C 39.710938 21.578125 39.890625 21.71875 40.015625 21.894531 C 40.121094 22.097656 40.207031 22.300781 40.308594 22.503906 L 40.332031 22.480469 C 40.511719 22.351562 40.601562 22.148438 40.601562 21.84375 C 40.523438 21.753906 40.511719 21.667969 40.449219 21.578125 C 40.375 21.449219 40.207031 21.386719 40.105469 21.285156 "/>
<path style=" stroke:none;fill-rule:nonzero;fill:rgb(97.254902%,59.607846%,11.372549%);fill-opacity:1;" d="M 54.273438 46.359375 L 54.535156 46.359375 L 54.535156 45.070312 L 54.140625 45.070312 L 53.820312 45.949219 L 53.46875 45.070312 L 53.089844 45.070312 L 53.089844 46.359375 L 53.339844 46.359375 L 53.339844 45.378906 L 53.351562 45.378906 L 53.71875 46.359375 L 53.90625 46.359375 L 54.273438 45.378906 Z M 52.152344 46.359375 L 52.429688 46.359375 L 52.429688 45.289062 L 52.796875 45.289062 L 52.796875 45.070312 L 51.773438 45.070312 L 51.773438 45.289062 L 52.152344 45.289062 Z M 52.152344 46.359375 "/>
</g>
</svg>
