<?xml version="1.0" encoding="UTF-8"?>
<svg version="1.1" xmlns="http://www.w3.org/2000/svg" width="590" height="119">
<path d="M0 0 C1.4813443 -0.01073296 1.4813443 -0.01073296 2.99261475 -0.02168274 C6.25336116 -0.03857583 9.51273397 -0.01916265 12.7734375 0.00219727 C15.04117954 0.00136863 17.30892153 -0.00109055 19.57666016 -0.00511169 C24.32798352 -0.00797013 29.0788356 0.00673664 33.83007812 0.03417969 C39.92011815 0.06826194 46.00931539 0.06224435 52.09939575 0.04351711 C56.78172834 0.03294813 61.46386485 0.04188415 66.1461792 0.05690193 C68.39165668 0.06208491 70.63715462 0.06160056 72.88262939 0.05535698 C76.0211591 0.04990621 79.15848271 0.07027669 82.296875 0.09765625 C83.22481873 0.09113037 84.15276245 0.08460449 85.10882568 0.07788086 C89.27367861 0.139655 91.57178035 0.28248266 95.20166016 2.47694397 C97.88375872 5.44475549 98.27309432 7.82345933 98.28215027 11.67868042 C98.28854774 12.91090836 98.28854774 12.91090836 98.29507446 14.16802979 C98.29439468 15.51462677 98.29439468 15.51462677 98.29370117 16.88842773 C98.29705978 17.83668427 98.3004184 18.7849408 98.30387878 19.76193237 C98.31339403 22.90323184 98.31533221 26.04447803 98.31640625 29.18579102 C98.3196185 31.36670962 98.32298254 33.547628 98.32649231 35.72854614 C98.33248506 40.30332946 98.33433207 44.87809389 98.33374023 49.45288086 C98.33363862 55.31631822 98.34728965 61.17963448 98.36451244 67.04304314 C98.37562856 71.54859982 98.37765956 76.0541272 98.37713051 80.5596962 C98.37831125 82.72145124 98.38273832 84.88320702 98.39046288 87.04494858 C98.40025454 90.06838217 98.39738785 93.09155244 98.39135742 96.11499023 C98.39697693 97.0086731 98.40259644 97.90235596 98.40838623 98.82312012 C98.38144179 104.13638273 98.20812571 108.21129559 94.62632751 112.41934204 C90.69150055 114.34358876 86.82442618 114.04774938 82.50219727 114.01928711 C81.524534 114.02454407 80.54687073 114.02980103 79.5395813 114.03521729 C76.30617316 114.04842631 73.07325695 114.03967512 69.83984375 114.02954102 C67.59309291 114.03156165 65.34634271 114.034473 63.09959412 114.03823853 C58.3894934 114.04266325 53.67956331 114.03622652 48.96948242 114.0222168 C42.93222991 114.00513484 36.89537778 114.01495913 30.85813999 114.03293419 C26.2178801 114.04377631 21.57771507 114.0403235 16.93745232 114.03255081 C14.71150604 114.03054949 12.48555116 114.03300569 10.25961494 114.03998947 C7.14753549 114.0476097 4.03610352 114.03599076 0.92407227 114.01928711 C0.00390823 114.0253598 -0.9162558 114.0314325 -1.86430359 114.03768921 C-6.66160946 113.98999663 -9.982333 113.80484283 -13.8515625 110.63110352 C-14.99436435 108.34549981 -14.9866153 107.05483344 -15.00546265 104.51396179 C-15.01406311 103.6517804 -15.02266357 102.789599 -15.03152466 101.90129089 C-15.03578461 100.9532106 -15.04004456 100.00513031 -15.04443359 99.02832031 C-15.05261108 98.03144196 -15.06078857 97.0345636 -15.06921387 96.00747681 C-15.09408901 92.69843146 -15.11058861 89.38942905 -15.125 86.08032227 C-15.13032368 84.95204325 -15.13564735 83.82376423 -15.14113235 82.66129494 C-15.16787209 76.69038191 -15.1872451 70.71948987 -15.20166016 64.74853516 C-15.21831748 58.57435636 -15.26310256 52.40071037 -15.3140316 46.22673321 C-15.34764941 41.48526886 -15.3592316 36.74393187 -15.36488724 32.00235939 C-15.37161392 29.72613258 -15.38687247 27.44991455 -15.41077805 25.17380333 C-15.44231658 21.9894475 -15.44248302 18.80654064 -15.43505859 15.62207031 C-15.45146393 14.68006271 -15.46786926 13.73805511 -15.48477173 12.76750183 C-15.44420389 8.52153284 -15.21263521 6.21103772 -12.93081665 2.54611206 C-8.57531961 -0.16260039 -5.0390833 -0.06349304 0 0 Z " fill="#0C6BC5" transform="translate(14.8515625,1.368896484375)"/>
<path d="M0 0 C4.43500976 1.31281226 7.99581285 3.05248161 11.890625 5.53515625 C13.03519165 6.25634907 14.18040294 6.97651957 15.32617188 7.69580078 C16.22275513 8.26104462 16.22275513 8.26104462 17.13745117 8.83770752 C20.33077728 10.83044933 23.56434863 12.75533197 26.796875 14.68359375 C28.1171943 15.47329593 29.43750678 16.2630095 30.7578125 17.05273438 C32.77865292 18.26021883 34.79978528 19.46721038 36.82128906 20.67358398 C38.8139071 21.86316091 40.8054556 23.05451166 42.796875 24.24609375 C43.40714539 24.60956406 44.01741577 24.97303436 44.6461792 25.34751892 C49.83705798 28.45576652 49.83705798 28.45576652 50.55786133 30.86328125 C52.01888419 37.69000752 52.95153987 44.48413259 50 51 C42.24710475 58.66661281 31.75360235 63.38027579 22 68 C21.01 68.495 21.01 68.495 20 69 C19.67 76.26 19.34 83.52 19 91 C15.87087533 89.74835013 13.28626875 88.69858563 10.44921875 87.0546875 C9.83369141 86.70019531 9.21816406 86.34570312 8.58398438 85.98046875 C7.95814453 85.61566406 7.33230469 85.25085938 6.6875 84.875 C6.04232422 84.50246094 5.39714844 84.12992187 4.73242188 83.74609375 C3.15324055 82.83367787 1.57638136 81.91724491 0 81 C-1.25537526 73.76517579 -2.36326661 66.08979982 0 59 C4.52553187 53.66019414 11.24586423 50.96159767 17.51611328 48.15478516 C20.81772713 46.61983002 23.72123088 44.76785275 26.75 42.75 C28.16567065 41.83179587 29.58214682 40.91483036 31 40 C26.28168209 36.62661284 21.5930385 33.71792865 16.30859375 31.30859375 C1.17100739 24.09606825 1.17100739 24.09606825 -1.00244141 18.34960938 C-1.91661258 12.16234704 -1.23720784 6.10038635 0 0 Z " fill="#E1E3E4" transform="translate(35,13)"/>
<path d="M0 0 C8.11875212 4.7782239 12.30995122 10.50407242 15.25 19.32421875 C16.11779066 30.39210619 14.95619385 37.96137402 8 46.63671875 C3.1571423 51.8761898 -3.05413203 55.03056295 -10.19140625 55.59765625 C-18.89587502 55.89872422 -25.3304636 55.38299357 -32.75 50.32421875 C-33.678125 49.72609375 -34.60625 49.12796875 -35.5625 48.51171875 C-41.56508039 42.50913836 -44.78008761 35.48409037 -45.0625 27.01171875 C-44.7996765 17.28724936 -41.88813471 11.55610497 -35.16796875 4.49609375 C-25.64183939 -4.06049417 -11.48681818 -5.38444602 0 0 Z M-27.5 15.13671875 C-31.10073126 20.2377547 -32.29239884 24.25774207 -31.2890625 30.37109375 C-29.82821965 35.66400262 -26.28261627 39.43982658 -21.75 42.32421875 C-17.64085317 44.00602146 -14.53711775 44.44635771 -10.125 43.76171875 C-4.86766538 41.52248363 -1.70317084 39.0081539 1.125 34.01171875 C2.89761228 28.2014896 3.10263971 23.69940465 0.75 18.13671875 C-1.7443374 13.6994238 -5.00786958 11.13074462 -9.75 9.32421875 C-17.04606672 8.04030853 -22.29655141 9.81500997 -27.5 15.13671875 Z " fill="#0965C2" transform="translate(342.75,16.67578125)"/>
<path d="M0 0 C4.95 0 9.9 0 15 0 C18.29001328 7.15551697 21.44410609 14.34009038 24.42578125 21.62890625 C24.81823532 22.58522446 25.21068939 23.54154266 25.61503601 24.52684021 C26.43365692 26.52371301 27.25117849 28.52103681 28.06762695 30.51879883 C29.32285271 33.58781227 30.58412744 36.65429534 31.84570312 39.72070312 C32.64359521 41.66912098 33.44113434 43.61768341 34.23828125 45.56640625 C34.61632401 46.48402237 34.99436676 47.40163849 35.38386536 48.34706116 C35.72810043 49.19231857 36.07233551 50.03757599 36.42700195 50.90844727 C36.731689 51.65248306 37.03637604 52.39651886 37.35029602 53.1631012 C38 55 38 55 38 57 C33.05 57 28.1 57 23 57 C22.01 54.03 21.02 51.06 20 48 C11.75 48 3.5 48 -5 48 C-5.33 49.65 -5.66 51.3 -6 53 C-6.66 54.32 -7.32 55.64 -8 57 C-12.62 57 -17.24 57 -22 57 C-21.17530007 52.05180041 -20.00590833 48.11020613 -18.0859375 43.57421875 C-17.79320953 42.86836136 -17.50048157 42.16250397 -17.19888306 41.43525696 C-16.26350654 39.18348599 -15.31949611 36.93545884 -14.375 34.6875 C-13.76373415 33.22094839 -13.15305244 31.75415316 -12.54296875 30.28710938 C-11.32279904 27.3547739 -10.09947586 24.42378372 -8.87402344 21.49365234 C-5.88636723 14.34136654 -2.94486503 7.16998327 0 0 Z M7 19 C5.83121737 21.81163781 4.66488052 24.62424608 3.5 27.4375 C3.16613281 28.23994141 2.83226562 29.04238281 2.48828125 29.86914062 C2.17246094 30.63291016 1.85664063 31.39667969 1.53125 32.18359375 C1.23798828 32.89056396 0.94472656 33.59753418 0.64257812 34.32592773 C-0.05972491 35.85673784 -0.05972491 35.85673784 0 37 C4.95 37 9.9 37 15 37 C13.02989474 30.79416842 10.74844552 24.90148454 8 19 C7.67 19 7.34 19 7 19 Z " fill="#0965C1" transform="translate(213,15)"/>
<path d="M0 0 C4.95 0 9.9 0 15 0 C20.19087496 11.91084486 25.2430295 23.87865242 30.17373657 35.89941406 C30.76552055 37.33970689 31.35973422 38.77900384 31.95639038 40.21728516 C32.80207468 42.25797671 33.63849395 44.30223262 34.47265625 46.34765625 C34.96000244 47.53367432 35.44734863 48.71969238 35.94946289 49.94165039 C37 53 37 53 37 57 C32.38 57 27.76 57 23 57 C22.01 54.03 21.02 51.06 20 48 C11.75 48 3.5 48 -5 48 C-5.99 50.97 -6.98 53.94 -8 57 C-12.62 57 -17.24 57 -22 57 C-21.27480308 52.6488185 -20.67646571 49.76716981 -19.06640625 45.85253906 C-18.66929443 44.87843079 -18.27218262 43.90432251 -17.86303711 42.9006958 C-17.43385986 41.86612244 -17.00468262 40.83154907 -16.5625 39.765625 C-16.12236572 38.69125183 -15.68223145 37.61687866 -15.22875977 36.50994873 C-13.82498392 33.0875452 -12.41252144 29.6688019 -11 26.25 C-10.048926 23.93382081 -9.09839891 21.61741698 -8.1484375 19.30078125 C-6.41338925 15.07581111 -4.67711958 10.85136246 -2.93359375 6.62988281 C-2.58353271 5.78194153 -2.23347168 4.93400024 -1.87280273 4.06036377 C-1.2914224 2.68794028 -0.66656573 1.33313145 0 0 Z M7 18 C5.83061634 20.97810741 4.66495037 23.95765591 3.5 26.9375 C3.16613281 27.78763672 2.83226562 28.63777344 2.48828125 29.51367188 C2.17246094 30.32255859 1.85664063 31.13144531 1.53125 31.96484375 C1.23798828 32.7137085 0.94472656 33.46257324 0.64257812 34.23413086 C-0.05699195 35.84342811 -0.05699195 35.84342811 0 37 C4.95 37 9.9 37 15 37 C14.04637378 34.39402144 13.08732872 31.79026349 12.125 29.1875 C11.85558594 28.44951172 11.58617187 27.71152344 11.30859375 26.95117188 C11.04433594 26.23896484 10.78007813 25.52675781 10.5078125 24.79296875 C10.26691895 24.1383667 10.02602539 23.48376465 9.77783203 22.80932617 C8.94473832 20.72104063 8.94473832 20.72104063 7 18 Z " fill="#0965C1" transform="translate(510,15)"/>
<path d="M0 0 C7.6725 -0.12375 7.6725 -0.12375 15.5 -0.25 C17.09779297 -0.28641602 18.69558594 -0.32283203 20.34179688 -0.36035156 C28.49890011 -0.42404683 35.14136516 -0.45730371 41.50146484 5.37744141 C45.08611428 9.28576698 46.96178963 13.07690651 47.03125 18.390625 C46.61530291 25.33694141 44.76026574 29.51576083 39.5 34.25 C35.52748082 37.03076342 32.9136481 38.25504449 28.015625 38.1953125 C27.08105469 38.18886719 26.14648438 38.18242188 25.18359375 38.17578125 C23.73146484 38.15064453 23.73146484 38.15064453 22.25 38.125 C21.26644531 38.11597656 20.28289062 38.10695312 19.26953125 38.09765625 C16.84624974 38.07412925 14.42309369 38.03825937 12 38 C12 44.27 12 50.54 12 57 C8.04 57 4.08 57 0 57 C0 38.19 0 19.38 0 0 Z M12 12 C12 16.62 12 21.24 12 26 C14.56364483 26.10845031 17.12266279 26.18749744 19.6875 26.25 C20.40873047 26.28351562 21.12996094 26.31703125 21.87304688 26.3515625 C25.74400643 26.42226496 27.59047799 26.25118781 30.98046875 24.171875 C33.24697627 22.10987448 33.24697627 22.10987448 33.625 19 C33.24697627 15.89012552 33.24697627 15.89012552 30.98046875 13.828125 C27.04611528 11.41491737 24.19311398 11.54062384 19.6875 11.75 C18.94693359 11.76804687 18.20636719 11.78609375 17.44335938 11.8046875 C15.6283429 11.85152663 13.81399834 11.92326211 12 12 Z " fill="#0965C1" transform="translate(142,15)"/>
<path d="M0 0 C5.14193764 -1.4081655 10.09246631 -2.44917608 15 0 C20.75207061 6.25261953 24.39450759 14.3780646 28 22 C32.28233226 15.8523669 32.28233226 15.8523669 35.84375 9.27734375 C37.62202729 5.69143081 39.20570224 2.88161956 42 0 C46.84314858 -1.10640894 51.12392155 -0.8012657 56 0 C54.66323905 3.55952848 53.07939665 6.75327746 51.13671875 10.01953125 C50.30043945 11.43008789 50.30043945 11.43008789 49.44726562 12.86914062 C48.86654297 13.84044922 48.28582031 14.81175781 47.6875 15.8125 C47.11837891 16.77220703 46.54925781 17.73191406 45.96289062 18.72070312 C45.40150391 19.66494141 44.84011719 20.60917969 44.26171875 21.58203125 C43.71201416 22.51289551 43.16230957 23.44375977 42.59594727 24.40283203 C41 27 41 27 39.49584961 29.07763672 C35.4736468 34.69272694 35.22762165 39.70606681 35.1875 46.5 C35.16236328 47.51320312 35.13722656 48.52640625 35.11132812 49.5703125 C35.05292832 52.04646443 35.02348622 54.52327084 35 57 C30.71 57 26.42 57 22 57 C22.07863281 55.72769531 22.15726562 54.45539063 22.23828125 53.14453125 C22.63647576 38.26718496 18.14046984 29.28376229 9.63867188 17.32958984 C7.34817233 14.07334034 5.258783 10.71063025 3.1875 7.3125 C2.24970703 5.82169922 2.24970703 5.82169922 1.29296875 4.30078125 C0 2 0 2 0 0 Z " fill="#0965C2" transform="translate(432,15)"/>
<path d="M0 0 C15.84 0 31.68 0 48 0 C48 3.96 48 7.92 48 12 C42.06 12 36.12 12 30 12 C30 26.85 30 41.7 30 57 C26.04 57 22.08 57 18 57 C18 42.15 18 27.3 18 12 C12.06 12 6.12 12 0 12 C0 8.04 0 4.08 0 0 Z " fill="#0965C2" transform="translate(248,15)"/>
<path d="M0 0 C4.29 0 8.58 0 13 0 C13 14.85 13 29.7 13 45 C22.24 45 31.48 45 41 45 C41 48.96 41 52.92 41 57 C27.47 57 13.94 57 0 57 C0 38.19 0 19.38 0 0 Z " fill="#0A65C1" transform="translate(366,15)"/>
<path d="M0 0 C4.43666769 1.31289146 7.99552754 3.05399789 11.890625 5.5390625 C13.03507231 6.26060718 14.18028926 6.98093221 15.32617188 7.70019531 C15.92389404 8.07664185 16.52161621 8.45308838 17.13745117 8.84094238 C20.32777537 10.82626997 23.56323162 12.73478873 26.796875 14.6484375 C28.11729531 15.43341242 29.43760754 16.21856919 30.7578125 17.00390625 C32.77750665 18.2044967 34.79812068 19.40341639 36.82128906 20.59814453 C38.81596801 21.77690435 40.80672179 22.96205719 42.796875 24.1484375 C43.40714539 24.50674652 44.01741577 24.86505554 44.6461792 25.23422241 C48.88629434 27.77258868 48.88629434 27.77258868 50 30 C47.61200818 31.5138967 45.21593697 33.01098696 42.8125 34.5 C42.13896484 34.92925781 41.46542969 35.35851563 40.77148438 35.80078125 C40.11083984 36.20683594 39.45019531 36.61289062 38.76953125 37.03125 C37.86618042 37.59682617 37.86618042 37.59682617 36.94458008 38.17382812 C34.38656514 39.26062317 32.76619581 39.3387336 30 39 C27.21679688 37.6706543 27.21679688 37.6706543 24.21875 35.82421875 C23.12949219 35.16099609 22.04023437 34.49777344 20.91796875 33.81445312 C19.77847489 33.10574353 18.63915342 32.39675669 17.5 31.6875 C16.36130064 30.98921651 15.22198286 30.29194043 14.08203125 29.59570312 C11.97935656 28.3079704 9.87943435 27.01572461 7.78320312 25.7175293 C5.0383005 23.96700439 5.0383005 23.96700439 2.16918945 22.58203125 C0 21 0 21 -0.56762695 18.73168945 C-0.54144287 17.86761475 -0.51525879 17.00354004 -0.48828125 16.11328125 C-0.47216797 15.17548828 -0.45605469 14.23769531 -0.43945312 13.27148438 C-0.39755859 12.29501953 -0.35566406 11.31855469 -0.3125 10.3125 C-0.28994141 9.32443359 -0.26738281 8.33636719 -0.24414062 7.31835938 C-0.18517988 4.87738441 -0.10295048 2.43945132 0 0 Z " fill="#F9FBFD" transform="translate(35,13)"/>
<path d="M0 0 C4.29 0 8.58 0 13 0 C13 18.81 13 37.62 13 57 C8.71 57 4.42 57 0 57 C0 38.19 0 19.38 0 0 Z " fill="#0966C2" transform="translate(414,15)"/>
<path d="M0 0 C0 6.6 0 13.2 0 20 C-4.79838421 18.4005386 -7.78057812 17.0713266 -11.875 14.375 C-12.84179688 13.74335937 -13.80859375 13.11171875 -14.8046875 12.4609375 C-15.52914062 11.97882813 -16.25359375 11.49671875 -17 11 C-14.27647998 7.89440343 -10.87342234 5.92453881 -7.375 3.8125 C-6.776875 3.44447266 -6.17875 3.07644531 -5.5625 2.69726562 C-1.13878421 0 -1.13878421 0 0 0 Z " fill="#FBFCFD" transform="translate(53,83)"/>
<path d="M0 0 C5 1 5 1 6.58203125 2.84765625 C7.72135417 4.8984375 8.86067708 6.94921875 10 9 C10.33 6.03 10.66 3.06 11 0 C11.99 0 12.98 0 14 0 C14 5.61 14 11.22 14 17 C12.68 17 11.36 17 10 17 C8.515625 15.25 8.515625 15.25 7.25 13 C6.82203125 12.2575 6.3940625 11.515 5.953125 10.75 C5.48132813 9.88375 5.48132813 9.88375 5 9 C4.67 11.64 4.34 14.28 4 17 C2.68 17 1.36 17 0 17 C0 11.39 0 5.78 0 0 Z " fill="#0D75CB" transform="translate(191,90)"/>
<path d="M0 0 C2.9375 1.4375 2.9375 1.4375 5 4 C5.89487669 8.27813857 5.70907738 11.73599249 3.5625 15.5625 C-0.26994213 17.71240656 -3.71090495 17.75551032 -8 17 C-10.5625 15.5 -10.5625 15.5 -12 13 C-12.7099846 8.0301078 -12.79117716 6.15080314 -9.9375 2 C-6.23727467 -0.51930235 -4.3968344 -0.7066341 0 0 Z M-8 5 C-9.0146239 6.8064655 -9.0146239 6.8064655 -9 9 C-8.00719496 11.82137181 -8.00719496 11.82137181 -6 14 C-3.5 14.75 -3.5 14.75 -1 14 C1.00965774 12.40383995 1.00965774 12.40383995 2 10 C2.00635246 7.36462492 2.00635246 7.36462492 1 5 C-3.01009099 2.32660601 -3.98990901 2.32660601 -8 5 Z " fill="#0D74CB" transform="translate(315,90)"/>
<path d="M0 0 C1.32 0 2.64 0 4 0 C4 2.31 4 4.62 4 7 C5.98 7 7.96 7 10 7 C10 4.69 10 2.38 10 0 C11.32 0 12.64 0 14 0 C14 5.61 14 11.22 14 17 C12.68 17 11.36 17 10 17 C10 14.69 10 12.38 10 10 C8.02 10 6.04 10 4 10 C4 12.31 4 14.62 4 17 C2.68 17 1.36 17 0 17 C0 11.39 0 5.78 0 0 Z " fill="#0E74CB" transform="translate(533,90)"/>
<path d="M0 0 C2.5 1.875 2.5 1.875 4 4 C4 4.66 4 5.32 4 6 C1.43565836 5.48713167 -1.12781543 4.97324793 -3.6875 4.4375 C-5.93526987 3.93803611 -5.93526987 3.93803611 -8 4 C-8.020625 5.299375 -8.04125 6.59875 -8.0625 7.9375 C-8.07410156 8.66839844 -8.08570313 9.39929688 -8.09765625 10.15234375 C-8.20561184 12.01732141 -8.20561184 12.01732141 -7 13 C-4.5 13.16666667 -4.5 13.16666667 -2 13 C-1.67 12.67 -1.34 12.34 -1 12 C0.66617115 11.95936168 2.33388095 11.957279 4 12 C2.25 15.875 2.25 15.875 0 17 C-3.05872727 17.41334152 -5.94622066 17.47189841 -9 17 C-12.31578076 14.33120085 -12.89008359 12.68392436 -13.5625 8.5 C-13 5 -13 5 -11 2.0625 C-6.84919686 -0.79117716 -4.9698922 -0.7099846 0 0 Z " fill="#0D75CB" transform="translate(485,90)"/>
<path d="M0 0 C3.3 0 6.6 0 10 0 C10 0.99 10 1.98 10 3 C8.02 3 6.04 3 4 3 C4 4.32 4 5.64 4 7 C5.65 7 7.3 7 9 7 C9 7.99 9 8.98 9 10 C7.35 10 5.7 10 4 10 C4 11.32 4 12.64 4 14 C5.98 14 7.96 14 10 14 C10 14.99 10 15.98 10 17 C6.7 17 3.4 17 0 17 C0 11.39 0 5.78 0 0 Z " fill="#0E75CB" transform="translate(419,90)"/>
<path d="M0 0 C3.96 0 7.92 0 12 0 C12 0.99 12 1.98 12 3 C10.68 3 9.36 3 8 3 C8 7.62 8 12.24 8 17 C6.68 17 5.36 17 4 17 C4 12.38 4 7.76 4 3 C2.68 3 1.36 3 0 3 C0 2.01 0 1.02 0 0 Z " fill="#0D75CB" transform="translate(363,90)"/>
<path d="M0 0 C3.3 0 6.6 0 10 0 C10 0.99 10 1.98 10 3 C7.69 3 5.38 3 3 3 C3 4.32 3 5.64 3 7 C4.98 7 6.96 7 9 7 C9 7.99 9 8.98 9 10 C7.02 10 5.04 10 3 10 C3 12.31 3 14.62 3 17 C2.01 17 1.02 17 0 17 C0 11.39 0 5.78 0 0 Z " fill="#0D75CB" transform="translate(250,90)"/>
<path d="M0 0 C1.32 0 2.64 0 4 0 C4 5.61 4 11.22 4 17 C2.68 17 1.36 17 0 17 C0 11.39 0 5.78 0 0 Z " fill="#0C76CB" transform="translate(143,90)"/>
</svg>
